<svg class="marks" width="414" height="466" viewBox="0 0 414 466" version="1.1" xmlns="http://www.w3.org/2000/svg" xmlns:xlink="http://www.w3.org/1999/xlink"><defs><clipPath id="clip1"><rect x="0" y="0" width="200" height="200"></rect></clipPath></defs><g transform="translate(51,5)"><g class="mark-group role-frame root"><g transform="translate(0,0)"><path class="background" d="M0.5,0.5h200v200h-200Z" style="fill: none; stroke: #ddd;"></path><g><g class="mark-group role-axis"><g transform="translate(0.5,200.5)"><path class="background" d="M0,0h0v0h0Z" style="pointer-events: none; fill: none;"></path><g><g class="mark-rule role-axis-grid" style="pointer-events: none;"><line transform="translate(22,-200)" x2="0" y2="200" style="fill: none; stroke: #ddd; stroke-width: 1; opacity: 1;"></line><line transform="translate(67,-200)" x2="0" y2="200" style="fill: none; stroke: #ddd; stroke-width: 1; opacity: 1;"></line><line transform="translate(111,-200)" x2="0" y2="200" style="fill: none; stroke: #ddd; stroke-width: 1; opacity: 1;"></line><line transform="translate(156,-200)" x2="0" y2="200" style="fill: none; stroke: #ddd; stroke-width: 1; opacity: 1;"></line><line transform="translate(200,-200)" x2="0" y2="200" style="fill: none; stroke: #ddd; stroke-width: 1; opacity: 1;"></line></g></g></g></g><g class="mark-group role-axis"><g transform="translate(0.5,0.5)"><path class="background" d="M0,0h0v0h0Z" style="pointer-events: none; fill: none;"></path><g><g class="mark-rule role-axis-grid" style="pointer-events: none;"><line transform="translate(0,200)" x2="200" y2="0" style="fill: none; stroke: #ddd; stroke-width: 1; opacity: 1;"></line><line transform="translate(0,164)" x2="200" y2="0" style="fill: none; stroke: #ddd; stroke-width: 1; opacity: 1;"></line><line transform="translate(0,127)" x2="200" y2="0" style="fill: none; stroke: #ddd; stroke-width: 1; opacity: 1;"></line><line transform="translate(0,91)" x2="200" y2="0" style="fill: none; stroke: #ddd; stroke-width: 1; opacity: 1;"></line><line transform="translate(0,55)" x2="200" y2="0" style="fill: none; stroke: #ddd; stroke-width: 1; opacity: 1;"></line><line transform="translate(0,18)" x2="200" y2="0" style="fill: none; stroke: #ddd; stroke-width: 1; opacity: 1;"></line></g></g></g></g><g class="mark-symbol role-mark marks" clip-path="url(#clip1)"><path transform="translate(155.82222222222225,41.81818181818181)" d="M3.872983346207417,0A3.872983346207417,3.872983346207417,0,1,1,-3.872983346207417,0A3.872983346207417,3.872983346207417,0,1,1,3.872983346207417,0" style="fill: #5c22be; stroke-width: 2; opacity: 0.7;"></path><path transform="translate(156.66666666666666,42)" d="M3.872983346207417,0A3.872983346207417,3.872983346207417,0,1,1,-3.872983346207417,0A3.872983346207417,3.872983346207417,0,1,1,3.872983346207417,0" style="fill: #5c22be; stroke-width: 2; opacity: 0.7;"></path><path transform="translate(153.33333333333334,44.94545454545454)" d="M3.872983346207417,0A3.872983346207417,3.872983346207417,0,1,1,-3.872983346207417,0A3.872983346207417,3.872983346207417,0,1,1,3.872983346207417,0" style="fill: #5330cd; stroke-width: 2; opacity: 0.7;"></path><path transform="translate(156.4888888888889,51.27272727272728)" d="M3.872983346207417,0A3.872983346207417,3.872983346207417,0,1,1,-3.872983346207417,0A3.872983346207417,3.872983346207417,0,1,1,3.872983346207417,0" style="fill: #5330cd; stroke-width: 2; opacity: 0.7;"></path><path transform="translate(159.20000000000002,47.52727272727273)" d="M3.872983346207417,0A3.872983346207417,3.872983346207417,0,1,1,-3.872983346207417,0A3.872983346207417,3.872983346207417,0,1,1,3.872983346207417,0" style="fill: #5330cd; stroke-width: 2; opacity: 0.7;"></path><path transform="translate(163.0222222222222,52.43636363636364)" d="M3.872983346207417,0A3.872983346207417,3.872983346207417,0,1,1,-3.872983346207417,0A3.872983346207417,3.872983346207417,0,1,1,3.872983346207417,0" style="fill: #5330cd; stroke-width: 2; opacity: 0.7;"></path><path transform="translate(163.0222222222222,52.43636363636364)" d="M3.872983346207417,0A3.872983346207417,3.872983346207417,0,1,1,-3.872983346207417,0A3.872983346207417,3.872983346207417,0,1,1,3.872983346207417,0" style="fill: #5330cd; stroke-width: 2; opacity: 0.7;"></path><path transform="translate(115.9111111111111,40.43636363636364)" d="M3.872983346207417,0A3.872983346207417,3.872983346207417,0,1,1,-3.872983346207417,0A3.872983346207417,3.872983346207417,0,1,1,3.872983346207417,0" style="fill: #000000; stroke-width: 2; opacity: 0.7;"></path><path transform="translate(114.17777777777778,40.76363636363635)" d="M3.872983346207417,0A3.872983346207417,3.872983346207417,0,1,1,-3.872983346207417,0A3.872983346207417,3.872983346207417,0,1,1,3.872983346207417,0" style="fill: #000000; stroke-width: 2; opacity: 0.7;"></path><path transform="translate(114.04444444444444,39.67272727272726)" d="M3.872983346207417,0A3.872983346207417,3.872983346207417,0,1,1,-3.872983346207417,0A3.872983346207417,3.872983346207417,0,1,1,3.872983346207417,0" style="fill: #000000; stroke-width: 2; opacity: 0.7;"></path><path transform="translate(109.46666666666667,38.90909090909091)" d="M3.872983346207417,0A3.872983346207417,3.872983346207417,0,1,1,-3.872983346207417,0A3.872983346207417,3.872983346207417,0,1,1,3.872983346207417,0" style="fill: #000000; stroke-width: 2; opacity: 0.7;"></path><path transform="translate(111.46666666666667,36.54545454545453)" d="M3.872983346207417,0A3.872983346207417,3.872983346207417,0,1,1,-3.872983346207417,0A3.872983346207417,3.872983346207417,0,1,1,3.872983346207417,0" style="fill: #000000; stroke-width: 2; opacity: 0.7;"></path><path transform="translate(109.73333333333335,37.09090909090912)" d="M3.872983346207417,0A3.872983346207417,3.872983346207417,0,1,1,-3.872983346207417,0A3.872983346207417,3.872983346207417,0,1,1,3.872983346207417,0" style="fill: #000000; stroke-width: 2; opacity: 0.7;"></path><path transform="translate(109.51111111111112,35.56363636363636)" d="M3.872983346207417,0A3.872983346207417,3.872983346207417,0,1,1,-3.872983346207417,0A3.872983346207417,3.872983346207417,0,1,1,3.872983346207417,0" style="fill: #000000; stroke-width: 2; opacity: 0.7;"></path><path transform="translate(109.51111111111112,35.56363636363636)" d="M3.872983346207417,0A3.872983346207417,3.872983346207417,0,1,1,-3.872983346207417,0A3.872983346207417,3.872983346207417,0,1,1,3.872983346207417,0" style="fill: #000000; stroke-width: 2; opacity: 0.7;"></path><path transform="translate(110.13333333333333,36)" d="M3.872983346207417,0A3.872983346207417,3.872983346207417,0,1,1,-3.872983346207417,0A3.872983346207417,3.872983346207417,0,1,1,3.872983346207417,0" style="fill: #71c4ac; stroke-width: 2; opacity: 0.7;"></path><path transform="translate(111.51111111111112,48.21818181818179)" d="M3.872983346207417,0A3.872983346207417,3.872983346207417,0,1,1,-3.872983346207417,0A3.872983346207417,3.872983346207417,0,1,1,3.872983346207417,0" style="fill: #000000; stroke-width: 2; opacity: 0.7;"></path><path transform="translate(105.91111111111111,50.07272727272726)" d="M3.872983346207417,0A3.872983346207417,3.872983346207417,0,1,1,-3.872983346207417,0A3.872983346207417,3.872983346207417,0,1,1,3.872983346207417,0" style="fill: #000000; stroke-width: 2; opacity: 0.7;"></path><path transform="translate(103.86666666666666,53.30909090909091)" d="M3.872983346207417,0A3.872983346207417,3.872983346207417,0,1,1,-3.872983346207417,0A3.872983346207417,3.872983346207417,0,1,1,3.872983346207417,0" style="fill: #000000; stroke-width: 2; opacity: 0.7;"></path><path transform="translate(99.33333333333334,51.345454545454544)" d="M3.872983346207417,0A3.872983346207417,3.872983346207417,0,1,1,-3.872983346207417,0A3.872983346207417,3.872983346207417,0,1,1,3.872983346207417,0" style="fill: #000000; stroke-width: 2; opacity: 0.7;"></path><path transform="translate(97.64444444444445,51.45454545454544)" d="M3.872983346207417,0A3.872983346207417,3.872983346207417,0,1,1,-3.872983346207417,0A3.872983346207417,3.872983346207417,0,1,1,3.872983346207417,0" style="fill: #000000; stroke-width: 2; opacity: 0.7;"></path><path transform="translate(87.24444444444444,47.56363636363636)" d="M3.872983346207417,0A3.872983346207417,3.872983346207417,0,1,1,-3.872983346207417,0A3.872983346207417,3.872983346207417,0,1,1,3.872983346207417,0" style="fill: #000000; stroke-width: 2; opacity: 0.7;"></path><path transform="translate(87.55555555555556,49.85454545454547)" d="M3.872983346207417,0A3.872983346207417,3.872983346207417,0,1,1,-3.872983346207417,0A3.872983346207417,3.872983346207417,0,1,1,3.872983346207417,0" style="fill: #e7cf4b; stroke-width: 2; opacity: 0.7;"></path><path transform="translate(87.55555555555556,49.85454545454547)" d="M3.872983346207417,0A3.872983346207417,3.872983346207417,0,1,1,-3.872983346207417,0A3.872983346207417,3.872983346207417,0,1,1,3.872983346207417,0" style="fill: #e7cf4b; stroke-width: 2; opacity: 0.7;"></path><path transform="translate(87.55555555555556,49.85454545454547)" d="M3.872983346207417,0A3.872983346207417,3.872983346207417,0,1,1,-3.872983346207417,0A3.872983346207417,3.872983346207417,0,1,1,3.872983346207417,0" style="fill: #e7cf4b; stroke-width: 2; opacity: 0.7;"></path><path transform="translate(87.55555555555556,49.85454545454547)" d="M3.872983346207417,0A3.872983346207417,3.872983346207417,0,1,1,-3.872983346207417,0A3.872983346207417,3.872983346207417,0,1,1,3.872983346207417,0" style="fill: #e7cf4b; stroke-width: 2; opacity: 0.7;"></path><path transform="translate(95.86666666666666,53.4909090909091)" d="M3.872983346207417,0A3.872983346207417,3.872983346207417,0,1,1,-3.872983346207417,0A3.872983346207417,3.872983346207417,0,1,1,3.872983346207417,0" style="fill: #ff9a3c; stroke-width: 2; opacity: 0.7;"></path><path transform="translate(92.48888888888888,58.69090909090909)" d="M3.872983346207417,0A3.872983346207417,3.872983346207417,0,1,1,-3.872983346207417,0A3.872983346207417,3.872983346207417,0,1,1,3.872983346207417,0" style="fill: #ff9a3c; stroke-width: 2; opacity: 0.7;"></path><path transform="translate(92.66666666666667,58.327272727272714)" d="M3.872983346207417,0A3.872983346207417,3.872983346207417,0,1,1,-3.872983346207417,0A3.872983346207417,3.872983346207417,0,1,1,3.872983346207417,0" style="fill: #ff9a3c; stroke-width: 2; opacity: 0.7;"></path><path transform="translate(92.66666666666667,58.327272727272714)" d="M3.872983346207417,0A3.872983346207417,3.872983346207417,0,1,1,-3.872983346207417,0A3.872983346207417,3.872983346207417,0,1,1,3.872983346207417,0" style="fill: #ff9a3c; stroke-width: 2; opacity: 0.7;"></path><path transform="translate(92.66666666666667,58.327272727272714)" d="M3.872983346207417,0A3.872983346207417,3.872983346207417,0,1,1,-3.872983346207417,0A3.872983346207417,3.872983346207417,0,1,1,3.872983346207417,0" style="fill: #ff9a3c; stroke-width: 2; opacity: 0.7;"></path><path transform="translate(101.64444444444445,49.74545454545455)" d="M3.872983346207417,0A3.872983346207417,3.872983346207417,0,1,1,-3.872983346207417,0A3.872983346207417,3.872983346207417,0,1,1,3.872983346207417,0" style="fill: #000000; stroke-width: 2; opacity: 0.7;"></path><path transform="translate(97.55555555555556,46.54545454545453)" d="M3.872983346207417,0A3.872983346207417,3.872983346207417,0,1,1,-3.872983346207417,0A3.872983346207417,3.872983346207417,0,1,1,3.872983346207417,0" style="fill: #ff8939; stroke-width: 2; opacity: 0.7;"></path><path transform="translate(98.31111111111112,45.672727272727286)" d="M3.872983346207417,0A3.872983346207417,3.872983346207417,0,1,1,-3.872983346207417,0A3.872983346207417,3.872983346207417,0,1,1,3.872983346207417,0" style="fill: #ff8939; stroke-width: 2; opacity: 0.7;"></path><path transform="translate(98.13333333333333,45.1272727272727)" d="M3.872983346207417,0A3.872983346207417,3.872983346207417,0,1,1,-3.872983346207417,0A3.872983346207417,3.872983346207417,0,1,1,3.872983346207417,0" style="fill: #ff8939; stroke-width: 2; opacity: 0.7;"></path><path transform="translate(101.6,47.381818181818204)" d="M3.872983346207417,0A3.872983346207417,3.872983346207417,0,1,1,-3.872983346207417,0A3.872983346207417,3.872983346207417,0,1,1,3.872983346207417,0" style="fill: #ff8939; stroke-width: 2; opacity: 0.7;"></path><path transform="translate(101.77777777777777,47.345454545454544)" d="M3.872983346207417,0A3.872983346207417,3.872983346207417,0,1,1,-3.872983346207417,0A3.872983346207417,3.872983346207417,0,1,1,3.872983346207417,0" style="fill: #ff8939; stroke-width: 2; opacity: 0.7;"></path><path transform="translate(100.66666666666666,47.81818181818181)" d="M3.872983346207417,0A3.872983346207417,3.872983346207417,0,1,1,-3.872983346207417,0A3.872983346207417,3.872983346207417,0,1,1,3.872983346207417,0" style="fill: #ff8939; stroke-width: 2; opacity: 0.7;"></path><path transform="translate(101.64444444444445,46.25454545454545)" d="M3.872983346207417,0A3.872983346207417,3.872983346207417,0,1,1,-3.872983346207417,0A3.872983346207417,3.872983346207417,0,1,1,3.872983346207417,0" style="fill: #ff8939; stroke-width: 2; opacity: 0.7;"></path><path transform="translate(99.95555555555556,47.890909090909105)" d="M3.872983346207417,0A3.872983346207417,3.872983346207417,0,1,1,-3.872983346207417,0A3.872983346207417,3.872983346207417,0,1,1,3.872983346207417,0" style="fill: #ff8939; stroke-width: 2; opacity: 0.7;"></path><path transform="translate(99.68888888888888,47.78181818181818)" d="M3.872983346207417,0A3.872983346207417,3.872983346207417,0,1,1,-3.872983346207417,0A3.872983346207417,3.872983346207417,0,1,1,3.872983346207417,0" style="fill: #ff8939; stroke-width: 2; opacity: 0.7;"></path><path transform="translate(101.33333333333334,46.109090909090895)" d="M3.872983346207417,0A3.872983346207417,3.872983346207417,0,1,1,-3.872983346207417,0A3.872983346207417,3.872983346207417,0,1,1,3.872983346207417,0" style="fill: #ff8939; stroke-width: 2; opacity: 0.7;"></path><path transform="translate(138.31111111111113,34.58181818181819)" d="M3.872983346207417,0A3.872983346207417,3.872983346207417,0,1,1,-3.872983346207417,0A3.872983346207417,3.872983346207417,0,1,1,3.872983346207417,0" style="fill: #000000; stroke-width: 2; opacity: 0.7;"></path><path transform="translate(149.15555555555557,36.29090909090911)" d="M3.872983346207417,0A3.872983346207417,3.872983346207417,0,1,1,-3.872983346207417,0A3.872983346207417,3.872983346207417,0,1,1,3.872983346207417,0" style="fill: #ff7535; stroke-width: 2; opacity: 0.7;"></path><path transform="translate(145.33333333333334,36.43636363636361)" d="M3.872983346207417,0A3.872983346207417,3.872983346207417,0,1,1,-3.872983346207417,0A3.872983346207417,3.872983346207417,0,1,1,3.872983346207417,0" style="fill: #ff7535; stroke-width: 2; opacity: 0.7;"></path><path transform="translate(145.42222222222222,36.47272727272727)" d="M3.872983346207417,0A3.872983346207417,3.872983346207417,0,1,1,-3.872983346207417,0A3.872983346207417,3.872983346207417,0,1,1,3.872983346207417,0" style="fill: #ff7535; stroke-width: 2; opacity: 0.7;"></path><path transform="translate(145.42222222222222,36.47272727272727)" d="M3.872983346207417,0A3.872983346207417,3.872983346207417,0,1,1,-3.872983346207417,0A3.872983346207417,3.872983346207417,0,1,1,3.872983346207417,0" style="fill: #ff7535; stroke-width: 2; opacity: 0.7;"></path><path transform="translate(139.15555555555554,40.54545454545456)" d="M3.872983346207417,0A3.872983346207417,3.872983346207417,0,1,1,-3.872983346207417,0A3.872983346207417,3.872983346207417,0,1,1,3.872983346207417,0" style="fill: #ff7535; stroke-width: 2; opacity: 0.7;"></path><path transform="translate(152.26666666666665,41.81818181818181)" d="M3.872983346207417,0A3.872983346207417,3.872983346207417,0,1,1,-3.872983346207417,0A3.872983346207417,3.872983346207417,0,1,1,3.872983346207417,0" style="fill: #ff7535; stroke-width: 2; opacity: 0.7;"></path><path transform="translate(148.3111111111111,50.21818181818182)" d="M3.872983346207417,0A3.872983346207417,3.872983346207417,0,1,1,-3.872983346207417,0A3.872983346207417,3.872983346207417,0,1,1,3.872983346207417,0" style="fill: #ff7535; stroke-width: 2; opacity: 0.7;"></path><path transform="translate(141.51111111111112,45.05454545454546)" d="M3.872983346207417,0A3.872983346207417,3.872983346207417,0,1,1,-3.872983346207417,0A3.872983346207417,3.872983346207417,0,1,1,3.872983346207417,0" style="fill: #ff7535; stroke-width: 2; opacity: 0.7;"></path><path transform="translate(143.77777777777777,48.00000000000003)" d="M3.872983346207417,0A3.872983346207417,3.872983346207417,0,1,1,-3.872983346207417,0A3.872983346207417,3.872983346207417,0,1,1,3.872983346207417,0" style="fill: #ff7535; stroke-width: 2; opacity: 0.7;"></path><path transform="translate(142.4888888888889,44.50909090909093)" d="M3.872983346207417,0A3.872983346207417,3.872983346207417,0,1,1,-3.872983346207417,0A3.872983346207417,3.872983346207417,0,1,1,3.872983346207417,0" style="fill: #ff7535; stroke-width: 2; opacity: 0.7;"></path><path transform="translate(144.22222222222223,49.381818181818176)" d="M3.872983346207417,0A3.872983346207417,3.872983346207417,0,1,1,-3.872983346207417,0A3.872983346207417,3.872983346207417,0,1,1,3.872983346207417,0" style="fill: #ff7535; stroke-width: 2; opacity: 0.7;"></path><path transform="translate(144.75555555555556,44.50909090909093)" d="M3.872983346207417,0A3.872983346207417,3.872983346207417,0,1,1,-3.872983346207417,0A3.872983346207417,3.872983346207417,0,1,1,3.872983346207417,0" style="fill: #ff7535; stroke-width: 2; opacity: 0.7;"></path><path transform="translate(139.6888888888889,45.85454545454547)" d="M3.872983346207417,0A3.872983346207417,3.872983346207417,0,1,1,-3.872983346207417,0A3.872983346207417,3.872983346207417,0,1,1,3.872983346207417,0" style="fill: #ff7535; stroke-width: 2; opacity: 0.7;"></path><path transform="translate(148.22222222222223,46.14545454545453)" d="M3.872983346207417,0A3.872983346207417,3.872983346207417,0,1,1,-3.872983346207417,0A3.872983346207417,3.872983346207417,0,1,1,3.872983346207417,0" style="fill: #ff7535; stroke-width: 2; opacity: 0.7;"></path><path transform="translate(144,45.599999999999994)" d="M3.872983346207417,0A3.872983346207417,3.872983346207417,0,1,1,-3.872983346207417,0A3.872983346207417,3.872983346207417,0,1,1,3.872983346207417,0" style="fill: #ff7535; stroke-width: 2; opacity: 0.7;"></path><path transform="translate(146,46.872727272727275)" d="M3.872983346207417,0A3.872983346207417,3.872983346207417,0,1,1,-3.872983346207417,0A3.872983346207417,3.872983346207417,0,1,1,3.872983346207417,0" style="fill: #ff7535; stroke-width: 2; opacity: 0.7;"></path><path transform="translate(144.93333333333334,47.70909090909089)" d="M3.872983346207417,0A3.872983346207417,3.872983346207417,0,1,1,-3.872983346207417,0A3.872983346207417,3.872983346207417,0,1,1,3.872983346207417,0" style="fill: #ff7535; stroke-width: 2; opacity: 0.7;"></path><path transform="translate(142.88888888888889,47.01818181818183)" d="M3.872983346207417,0A3.872983346207417,3.872983346207417,0,1,1,-3.872983346207417,0A3.872983346207417,3.872983346207417,0,1,1,3.872983346207417,0" style="fill: #ff7535; stroke-width: 2; opacity: 0.7;"></path><path transform="translate(139.91111111111113,46.327272727272714)" d="M3.872983346207417,0A3.872983346207417,3.872983346207417,0,1,1,-3.872983346207417,0A3.872983346207417,3.872983346207417,0,1,1,3.872983346207417,0" style="fill: #ff7535; stroke-width: 2; opacity: 0.7;"></path><path transform="translate(142.9333333333333,46.29090909090911)" d="M3.872983346207417,0A3.872983346207417,3.872983346207417,0,1,1,-3.872983346207417,0A3.872983346207417,3.872983346207417,0,1,1,3.872983346207417,0" style="fill: #ff7535; stroke-width: 2; opacity: 0.7;"></path><path transform="translate(142.57777777777778,50.581818181818164)" d="M3.872983346207417,0A3.872983346207417,3.872983346207417,0,1,1,-3.872983346207417,0A3.872983346207417,3.872983346207417,0,1,1,3.872983346207417,0" style="fill: #ff7535; stroke-width: 2; opacity: 0.7;"></path><path transform="translate(139.42222222222222,48.618181818181796)" d="M3.872983346207417,0A3.872983346207417,3.872983346207417,0,1,1,-3.872983346207417,0A3.872983346207417,3.872983346207417,0,1,1,3.872983346207417,0" style="fill: #ff7535; stroke-width: 2; opacity: 0.7;"></path><path transform="translate(140.08888888888887,48.872727272727275)" d="M3.872983346207417,0A3.872983346207417,3.872983346207417,0,1,1,-3.872983346207417,0A3.872983346207417,3.872983346207417,0,1,1,3.872983346207417,0" style="fill: #ff7535; stroke-width: 2; opacity: 0.7;"></path><path transform="translate(140.53333333333333,49.78181818181818)" d="M3.872983346207417,0A3.872983346207417,3.872983346207417,0,1,1,-3.872983346207417,0A3.872983346207417,3.872983346207417,0,1,1,3.872983346207417,0" style="fill: #ff7535; stroke-width: 2; opacity: 0.7;"></path><path transform="translate(150.66666666666666,34.5090909090909)" d="M3.872983346207417,0A3.872983346207417,3.872983346207417,0,1,1,-3.872983346207417,0A3.872983346207417,3.872983346207417,0,1,1,3.872983346207417,0" style="fill: #000000; stroke-width: 2; opacity: 0.7;"></path><path transform="translate(154.84444444444446,33.890909090909076)" d="M3.872983346207417,0A3.872983346207417,3.872983346207417,0,1,1,-3.872983346207417,0A3.872983346207417,3.872983346207417,0,1,1,3.872983346207417,0" style="fill: #000000; stroke-width: 2; opacity: 0.7;"></path><path transform="translate(152.8,29.78181818181818)" d="M3.872983346207417,0A3.872983346207417,3.872983346207417,0,1,1,-3.872983346207417,0A3.872983346207417,3.872983346207417,0,1,1,3.872983346207417,0" style="fill: #000000; stroke-width: 2; opacity: 0.7;"></path><path transform="translate(153.06666666666666,31.23636363636365)" d="M3.872983346207417,0A3.872983346207417,3.872983346207417,0,1,1,-3.872983346207417,0A3.872983346207417,3.872983346207417,0,1,1,3.872983346207417,0" style="fill: #000000; stroke-width: 2; opacity: 0.7;"></path><path transform="translate(160.08888888888887,24.80000000000001)" d="M3.872983346207417,0A3.872983346207417,3.872983346207417,0,1,1,-3.872983346207417,0A3.872983346207417,3.872983346207417,0,1,1,3.872983346207417,0" style="fill: #000000; stroke-width: 2; opacity: 0.7;"></path><path transform="translate(159.24444444444444,26.72727272727272)" d="M3.872983346207417,0A3.872983346207417,3.872983346207417,0,1,1,-3.872983346207417,0A3.872983346207417,3.872983346207417,0,1,1,3.872983346207417,0" style="fill: #ff6131; stroke-width: 2; opacity: 0.7;"></path><path transform="translate(159.24444444444444,26.72727272727272)" d="M3.872983346207417,0A3.872983346207417,3.872983346207417,0,1,1,-3.872983346207417,0A3.872983346207417,3.872983346207417,0,1,1,3.872983346207417,0" style="fill: #ff6131; stroke-width: 2; opacity: 0.7;"></path><path transform="translate(159.24444444444444,26.72727272727272)" d="M3.872983346207417,0A3.872983346207417,3.872983346207417,0,1,1,-3.872983346207417,0A3.872983346207417,3.872983346207417,0,1,1,3.872983346207417,0" style="fill: #ff6131; stroke-width: 2; opacity: 0.7;"></path><path transform="translate(162.57777777777778,27.636363636363626)" d="M3.872983346207417,0A3.872983346207417,3.872983346207417,0,1,1,-3.872983346207417,0A3.872983346207417,3.872983346207417,0,1,1,3.872983346207417,0" style="fill: #fd4b2c; stroke-width: 2; opacity: 0.7;"></path><path transform="translate(162.26666666666665,27.418181818181807)" d="M3.872983346207417,0A3.872983346207417,3.872983346207417,0,1,1,-3.872983346207417,0A3.872983346207417,3.872983346207417,0,1,1,3.872983346207417,0" style="fill: #fd4b2c; stroke-width: 2; opacity: 0.7;"></path><path transform="translate(167.77777777777777,24.945454545454538)" d="M3.872983346207417,0A3.872983346207417,3.872983346207417,0,1,1,-3.872983346207417,0A3.872983346207417,3.872983346207417,0,1,1,3.872983346207417,0" style="fill: #f93529; stroke-width: 2; opacity: 0.7;"></path><path transform="translate(167.33333333333334,24.945454545454538)" d="M3.872983346207417,0A3.872983346207417,3.872983346207417,0,1,1,-3.872983346207417,0A3.872983346207417,3.872983346207417,0,1,1,3.872983346207417,0" style="fill: #f93529; stroke-width: 2; opacity: 0.7;"></path><path transform="translate(167.2,24.80000000000001)" d="M3.872983346207417,0A3.872983346207417,3.872983346207417,0,1,1,-3.872983346207417,0A3.872983346207417,3.872983346207417,0,1,1,3.872983346207417,0" style="fill: #f93529; stroke-width: 2; opacity: 0.7;"></path><path transform="translate(166.88888888888889,24.9818181818182)" d="M3.872983346207417,0A3.872983346207417,3.872983346207417,0,1,1,-3.872983346207417,0A3.872983346207417,3.872983346207417,0,1,1,3.872983346207417,0" style="fill: #f93529; stroke-width: 2; opacity: 0.7;"></path><path transform="translate(167.46666666666667,24.472727272727298)" d="M3.872983346207417,0A3.872983346207417,3.872983346207417,0,1,1,-3.872983346207417,0A3.872983346207417,3.872983346207417,0,1,1,3.872983346207417,0" style="fill: #f93529; stroke-width: 2; opacity: 0.7;"></path><path transform="translate(152.31111111111107,23.345454545454572)" d="M3.872983346207417,0A3.872983346207417,3.872983346207417,0,1,1,-3.872983346207417,0A3.872983346207417,3.872983346207417,0,1,1,3.872983346207417,0" style="fill: #4b3ddb; stroke-width: 2; opacity: 0.7;"></path><path transform="translate(152.35555555555555,23.19999999999999)" d="M3.872983346207417,0A3.872983346207417,3.872983346207417,0,1,1,-3.872983346207417,0A3.872983346207417,3.872983346207417,0,1,1,3.872983346207417,0" style="fill: #4b3ddb; stroke-width: 2; opacity: 0.7;"></path><path transform="translate(154.48888888888888,20.545454545454533)" d="M3.872983346207417,0A3.872983346207417,3.872983346207417,0,1,1,-3.872983346207417,0A3.872983346207417,3.872983346207417,0,1,1,3.872983346207417,0" style="fill: #4b3ddb; stroke-width: 2; opacity: 0.7;"></path><path transform="translate(154.35555555555558,20.654545454545456)" d="M3.872983346207417,0A3.872983346207417,3.872983346207417,0,1,1,-3.872983346207417,0A3.872983346207417,3.872983346207417,0,1,1,3.872983346207417,0" style="fill: #4b3ddb; stroke-width: 2; opacity: 0.7;"></path><path transform="translate(151.6,16.872727272727275)" d="M3.872983346207417,0A3.872983346207417,3.872983346207417,0,1,1,-3.872983346207417,0A3.872983346207417,3.872983346207417,0,1,1,3.872983346207417,0" style="fill: #474ee3; stroke-width: 2; opacity: 0.7;"></path><path transform="translate(152.53333333333333,13.272727272727252)" d="M3.872983346207417,0A3.872983346207417,3.872983346207417,0,1,1,-3.872983346207417,0A3.872983346207417,3.872983346207417,0,1,1,3.872983346207417,0" style="fill: #474ee3; stroke-width: 2; opacity: 0.7;"></path><path transform="translate(152.84444444444446,12.98181818181817)" d="M3.872983346207417,0A3.872983346207417,3.872983346207417,0,1,1,-3.872983346207417,0A3.872983346207417,3.872983346207417,0,1,1,3.872983346207417,0" style="fill: #474ee3; stroke-width: 2; opacity: 0.7;"></path><path transform="translate(152.57777777777775,12.799999999999983)" d="M3.872983346207417,0A3.872983346207417,3.872983346207417,0,1,1,-3.872983346207417,0A3.872983346207417,3.872983346207417,0,1,1,3.872983346207417,0" style="fill: #474ee3; stroke-width: 2; opacity: 0.7;"></path><path transform="translate(152.57777777777775,12.98181818181817)" d="M3.872983346207417,0A3.872983346207417,3.872983346207417,0,1,1,-3.872983346207417,0A3.872983346207417,3.872983346207417,0,1,1,3.872983346207417,0" style="fill: #474ee3; stroke-width: 2; opacity: 0.7;"></path><path transform="translate(152.62222222222223,12.472727272727269)" d="M3.872983346207417,0A3.872983346207417,3.872983346207417,0,1,1,-3.872983346207417,0A3.872983346207417,3.872983346207417,0,1,1,3.872983346207417,0" style="fill: #474ee3; stroke-width: 2; opacity: 0.7;"></path><path transform="translate(144.13333333333333,18.47272727272727)" d="M3.872983346207417,0A3.872983346207417,3.872983346207417,0,1,1,-3.872983346207417,0A3.872983346207417,3.872983346207417,0,1,1,3.872983346207417,0" style="fill: #4760e9; stroke-width: 2; opacity: 0.7;"></path><path transform="translate(145.77777777777777,20.47272727272727)" d="M3.872983346207417,0A3.872983346207417,3.872983346207417,0,1,1,-3.872983346207417,0A3.872983346207417,3.872983346207417,0,1,1,3.872983346207417,0" style="fill: #4760e9; stroke-width: 2; opacity: 0.7;"></path><path transform="translate(144.79999999999998,21.23636363636365)" d="M3.872983346207417,0A3.872983346207417,3.872983346207417,0,1,1,-3.872983346207417,0A3.872983346207417,3.872983346207417,0,1,1,3.872983346207417,0" style="fill: #4760e9; stroke-width: 2; opacity: 0.7;"></path><path transform="translate(145.9111111111111,20.76363636363635)" d="M3.872983346207417,0A3.872983346207417,3.872983346207417,0,1,1,-3.872983346207417,0A3.872983346207417,3.872983346207417,0,1,1,3.872983346207417,0" style="fill: #4760e9; stroke-width: 2; opacity: 0.7;"></path><path transform="translate(145.33333333333334,21.01818181818183)" d="M3.872983346207417,0A3.872983346207417,3.872983346207417,0,1,1,-3.872983346207417,0A3.872983346207417,3.872983346207417,0,1,1,3.872983346207417,0" style="fill: #4760e9; stroke-width: 2; opacity: 0.7;"></path><path transform="translate(145.64444444444442,20.872727272727275)" d="M3.872983346207417,0A3.872983346207417,3.872983346207417,0,1,1,-3.872983346207417,0A3.872983346207417,3.872983346207417,0,1,1,3.872983346207417,0" style="fill: #4760e9; stroke-width: 2; opacity: 0.7;"></path><path transform="translate(145.64444444444442,20.872727272727275)" d="M3.872983346207417,0A3.872983346207417,3.872983346207417,0,1,1,-3.872983346207417,0A3.872983346207417,3.872983346207417,0,1,1,3.872983346207417,0" style="fill: #4760e9; stroke-width: 2; opacity: 0.7;"></path><path transform="translate(162.53333333333333,39.30909090909091)" d="M3.872983346207417,0A3.872983346207417,3.872983346207417,0,1,1,-3.872983346207417,0A3.872983346207417,3.872983346207417,0,1,1,3.872983346207417,0" style="fill: #4971eb; stroke-width: 2; opacity: 0.7;"></path><path transform="translate(143.2,85.05454545454545)" d="M3.872983346207417,0A3.872983346207417,3.872983346207417,0,1,1,-3.872983346207417,0A3.872983346207417,3.872983346207417,0,1,1,3.872983346207417,0" style="fill: #4971eb; stroke-width: 2; opacity: 0.7;"></path><path transform="translate(142.3111111111111,86.07272727272728)" d="M3.872983346207417,0A3.872983346207417,3.872983346207417,0,1,1,-3.872983346207417,0A3.872983346207417,3.872983346207417,0,1,1,3.872983346207417,0" style="fill: #4971eb; stroke-width: 2; opacity: 0.7;"></path><path transform="translate(144.71111111111114,83.2)" d="M3.872983346207417,0A3.872983346207417,3.872983346207417,0,1,1,-3.872983346207417,0A3.872983346207417,3.872983346207417,0,1,1,3.872983346207417,0" style="fill: #4971eb; stroke-width: 2; opacity: 0.7;"></path><path transform="translate(146.62222222222223,81.63636363636364)" d="M3.872983346207417,0A3.872983346207417,3.872983346207417,0,1,1,-3.872983346207417,0A3.872983346207417,3.872983346207417,0,1,1,3.872983346207417,0" style="fill: #4971eb; stroke-width: 2; opacity: 0.7;"></path><path transform="translate(146.13333333333333,81.99999999999999)" d="M3.872983346207417,0A3.872983346207417,3.872983346207417,0,1,1,-3.872983346207417,0A3.872983346207417,3.872983346207417,0,1,1,3.872983346207417,0" style="fill: #4971eb; stroke-width: 2; opacity: 0.7;"></path><path transform="translate(147.95555555555555,81.7090909090909)" d="M3.872983346207417,0A3.872983346207417,3.872983346207417,0,1,1,-3.872983346207417,0A3.872983346207417,3.872983346207417,0,1,1,3.872983346207417,0" style="fill: #4971eb; stroke-width: 2; opacity: 0.7;"></path><path transform="translate(149.15555555555557,86.25454545454545)" d="M3.872983346207417,0A3.872983346207417,3.872983346207417,0,1,1,-3.872983346207417,0A3.872983346207417,3.872983346207417,0,1,1,3.872983346207417,0" style="fill: #4971eb; stroke-width: 2; opacity: 0.7;"></path><path transform="translate(146.35555555555555,87.27272727272728)" d="M3.872983346207417,0A3.872983346207417,3.872983346207417,0,1,1,-3.872983346207417,0A3.872983346207417,3.872983346207417,0,1,1,3.872983346207417,0" style="fill: #4971eb; stroke-width: 2; opacity: 0.7;"></path><path transform="translate(145.6888888888889,84.21818181818182)" d="M3.872983346207417,0A3.872983346207417,3.872983346207417,0,1,1,-3.872983346207417,0A3.872983346207417,3.872983346207417,0,1,1,3.872983346207417,0" style="fill: #4971eb; stroke-width: 2; opacity: 0.7;"></path><path transform="translate(142.4888888888889,82.10909090909091)" d="M3.872983346207417,0A3.872983346207417,3.872983346207417,0,1,1,-3.872983346207417,0A3.872983346207417,3.872983346207417,0,1,1,3.872983346207417,0" style="fill: #4971eb; stroke-width: 2; opacity: 0.7;"></path><path transform="translate(148.66666666666669,84.21818181818182)" d="M3.872983346207417,0A3.872983346207417,3.872983346207417,0,1,1,-3.872983346207417,0A3.872983346207417,3.872983346207417,0,1,1,3.872983346207417,0" style="fill: #4971eb; stroke-width: 2; opacity: 0.7;"></path><path transform="translate(146.13333333333333,85.09090909090908)" d="M3.872983346207417,0A3.872983346207417,3.872983346207417,0,1,1,-3.872983346207417,0A3.872983346207417,3.872983346207417,0,1,1,3.872983346207417,0" style="fill: #4971eb; stroke-width: 2; opacity: 0.7;"></path><path transform="translate(147.24444444444447,84.76363636363635)" d="M3.872983346207417,0A3.872983346207417,3.872983346207417,0,1,1,-3.872983346207417,0A3.872983346207417,3.872983346207417,0,1,1,3.872983346207417,0" style="fill: #4971eb; stroke-width: 2; opacity: 0.7;"></path><path transform="translate(146.17777777777778,85.16363636363637)" d="M3.872983346207417,0A3.872983346207417,3.872983346207417,0,1,1,-3.872983346207417,0A3.872983346207417,3.872983346207417,0,1,1,3.872983346207417,0" style="fill: #4971eb; stroke-width: 2; opacity: 0.7;"></path><path transform="translate(148.66666666666669,83.85454545454544)" d="M3.872983346207417,0A3.872983346207417,3.872983346207417,0,1,1,-3.872983346207417,0A3.872983346207417,3.872983346207417,0,1,1,3.872983346207417,0" style="fill: #4971eb; stroke-width: 2; opacity: 0.7;"></path><path transform="translate(167.11111111111111,65.70909090909092)" d="M3.872983346207417,0A3.872983346207417,3.872983346207417,0,1,1,-3.872983346207417,0A3.872983346207417,3.872983346207417,0,1,1,3.872983346207417,0" style="fill: #000000; stroke-width: 2; opacity: 0.7;"></path><path transform="translate(160.66666666666666,68.03636363636366)" d="M3.872983346207417,0A3.872983346207417,3.872983346207417,0,1,1,-3.872983346207417,0A3.872983346207417,3.872983346207417,0,1,1,3.872983346207417,0" style="fill: #4b82e9; stroke-width: 2; opacity: 0.7;"></path><path transform="translate(160.57777777777778,68.00000000000003)" d="M3.872983346207417,0A3.872983346207417,3.872983346207417,0,1,1,-3.872983346207417,0A3.872983346207417,3.872983346207417,0,1,1,3.872983346207417,0" style="fill: #4b82e9; stroke-width: 2; opacity: 0.7;"></path><path transform="translate(160.57777777777778,68.00000000000003)" d="M3.872983346207417,0A3.872983346207417,3.872983346207417,0,1,1,-3.872983346207417,0A3.872983346207417,3.872983346207417,0,1,1,3.872983346207417,0" style="fill: #4b82e9; stroke-width: 2; opacity: 0.7;"></path><path transform="translate(169.77777777777777,69.92727272727274)" d="M3.872983346207417,0A3.872983346207417,3.872983346207417,0,1,1,-3.872983346207417,0A3.872983346207417,3.872983346207417,0,1,1,3.872983346207417,0" style="fill: #000000; stroke-width: 2; opacity: 0.7;"></path><path transform="translate(170.44444444444446,71.41818181818184)" d="M3.872983346207417,0A3.872983346207417,3.872983346207417,0,1,1,-3.872983346207417,0A3.872983346207417,3.872983346207417,0,1,1,3.872983346207417,0" style="fill: #000000; stroke-width: 2; opacity: 0.7;"></path><path transform="translate(172.22222222222223,68.36363636363637)" d="M3.872983346207417,0A3.872983346207417,3.872983346207417,0,1,1,-3.872983346207417,0A3.872983346207417,3.872983346207417,0,1,1,3.872983346207417,0" style="fill: #4f92e5; stroke-width: 2; opacity: 0.7;"></path><path transform="translate(172.17777777777778,68.47272727272727)" d="M3.872983346207417,0A3.872983346207417,3.872983346207417,0,1,1,-3.872983346207417,0A3.872983346207417,3.872983346207417,0,1,1,3.872983346207417,0" style="fill: #4f92e5; stroke-width: 2; opacity: 0.7;"></path><path transform="translate(169.6,73.67272727272727)" d="M3.872983346207417,0A3.872983346207417,3.872983346207417,0,1,1,-3.872983346207417,0A3.872983346207417,3.872983346207417,0,1,1,3.872983346207417,0" style="fill: #549fdc; stroke-width: 2; opacity: 0.7;"></path><path transform="translate(169.73333333333332,73.38181818181818)" d="M3.872983346207417,0A3.872983346207417,3.872983346207417,0,1,1,-3.872983346207417,0A3.872983346207417,3.872983346207417,0,1,1,3.872983346207417,0" style="fill: #549fdc; stroke-width: 2; opacity: 0.7;"></path><path transform="translate(167.2,72.76363636363637)" d="M3.872983346207417,0A3.872983346207417,3.872983346207417,0,1,1,-3.872983346207417,0A3.872983346207417,3.872983346207417,0,1,1,3.872983346207417,0" style="fill: #549fdc; stroke-width: 2; opacity: 0.7;"></path><path transform="translate(168.22222222222223,73.6)" d="M3.872983346207417,0A3.872983346207417,3.872983346207417,0,1,1,-3.872983346207417,0A3.872983346207417,3.872983346207417,0,1,1,3.872983346207417,0" style="fill: #549fdc; stroke-width: 2; opacity: 0.7;"></path><path transform="translate(167.86666666666665,73.74545454545456)" d="M3.872983346207417,0A3.872983346207417,3.872983346207417,0,1,1,-3.872983346207417,0A3.872983346207417,3.872983346207417,0,1,1,3.872983346207417,0" style="fill: #549fdc; stroke-width: 2; opacity: 0.7;"></path><path transform="translate(172.22222222222223,73.16363636363636)" d="M3.872983346207417,0A3.872983346207417,3.872983346207417,0,1,1,-3.872983346207417,0A3.872983346207417,3.872983346207417,0,1,1,3.872983346207417,0" style="fill: #5aabd3; stroke-width: 2; opacity: 0.7;"></path><path transform="translate(176.04444444444445,71.67272727272726)" d="M3.872983346207417,0A3.872983346207417,3.872983346207417,0,1,1,-3.872983346207417,0A3.872983346207417,3.872983346207417,0,1,1,3.872983346207417,0" style="fill: #5aabd3; stroke-width: 2; opacity: 0.7;"></path><path transform="translate(175.77777777777777,71.67272727272726)" d="M3.872983346207417,0A3.872983346207417,3.872983346207417,0,1,1,-3.872983346207417,0A3.872983346207417,3.872983346207417,0,1,1,3.872983346207417,0" style="fill: #5aabd3; stroke-width: 2; opacity: 0.7;"></path><path transform="translate(179.7777777777778,64.50909090909093)" d="M3.872983346207417,0A3.872983346207417,3.872983346207417,0,1,1,-3.872983346207417,0A3.872983346207417,3.872983346207417,0,1,1,3.872983346207417,0" style="fill: #61b4c6; stroke-width: 2; opacity: 0.7;"></path><path transform="translate(179.7777777777778,64.50909090909093)" d="M3.872983346207417,0A3.872983346207417,3.872983346207417,0,1,1,-3.872983346207417,0A3.872983346207417,3.872983346207417,0,1,1,3.872983346207417,0" style="fill: #61b4c6; stroke-width: 2; opacity: 0.7;"></path><path transform="translate(175.73333333333332,77.45454545454544)" d="M3.872983346207417,0A3.872983346207417,3.872983346207417,0,1,1,-3.872983346207417,0A3.872983346207417,3.872983346207417,0,1,1,3.872983346207417,0" style="fill: #68bdba; stroke-width: 2; opacity: 0.7;"></path><path transform="translate(177.64444444444445,80.21818181818183)" d="M3.872983346207417,0A3.872983346207417,3.872983346207417,0,1,1,-3.872983346207417,0A3.872983346207417,3.872983346207417,0,1,1,3.872983346207417,0" style="fill: #000000; stroke-width: 2; opacity: 0.7;"></path><path transform="translate(186.5777777777778,86.65454545454546)" d="M3.872983346207417,0A3.872983346207417,3.872983346207417,0,1,1,-3.872983346207417,0A3.872983346207417,3.872983346207417,0,1,1,3.872983346207417,0" style="fill: #7bca9d; stroke-width: 2; opacity: 0.7;"></path><path transform="translate(182.79999999999998,86.10909090909091)" d="M3.872983346207417,0A3.872983346207417,3.872983346207417,0,1,1,-3.872983346207417,0A3.872983346207417,3.872983346207417,0,1,1,3.872983346207417,0" style="fill: #7bca9d; stroke-width: 2; opacity: 0.7;"></path><path transform="translate(183.68888888888887,84.61818181818181)" d="M3.872983346207417,0A3.872983346207417,3.872983346207417,0,1,1,-3.872983346207417,0A3.872983346207417,3.872983346207417,0,1,1,3.872983346207417,0" style="fill: #7bca9d; stroke-width: 2; opacity: 0.7;"></path><path transform="translate(183.95555555555555,84.32727272727274)" d="M3.872983346207417,0A3.872983346207417,3.872983346207417,0,1,1,-3.872983346207417,0A3.872983346207417,3.872983346207417,0,1,1,3.872983346207417,0" style="fill: #7bca9d; stroke-width: 2; opacity: 0.7;"></path><path transform="translate(184.0888888888889,84.25454545454546)" d="M3.872983346207417,0A3.872983346207417,3.872983346207417,0,1,1,-3.872983346207417,0A3.872983346207417,3.872983346207417,0,1,1,3.872983346207417,0" style="fill: #7bca9d; stroke-width: 2; opacity: 0.7;"></path><path transform="translate(184.04444444444442,84.25454545454546)" d="M3.872983346207417,0A3.872983346207417,3.872983346207417,0,1,1,-3.872983346207417,0A3.872983346207417,3.872983346207417,0,1,1,3.872983346207417,0" style="fill: #7bca9d; stroke-width: 2; opacity: 0.7;"></path><path transform="translate(189.15555555555557,82.98181818181818)" d="M3.872983346207417,0A3.872983346207417,3.872983346207417,0,1,1,-3.872983346207417,0A3.872983346207417,3.872983346207417,0,1,1,3.872983346207417,0" style="fill: #000000; stroke-width: 2; opacity: 0.7;"></path><path transform="translate(190.53333333333336,86.50909090909092)" d="M3.872983346207417,0A3.872983346207417,3.872983346207417,0,1,1,-3.872983346207417,0A3.872983346207417,3.872983346207417,0,1,1,3.872983346207417,0" style="fill: #86ce91; stroke-width: 2; opacity: 0.7;"></path><path transform="translate(190.53333333333336,86.54545454545455)" d="M3.872983346207417,0A3.872983346207417,3.872983346207417,0,1,1,-3.872983346207417,0A3.872983346207417,3.872983346207417,0,1,1,3.872983346207417,0" style="fill: #86ce91; stroke-width: 2; opacity: 0.7;"></path><path transform="translate(190.53333333333336,86.54545454545455)" d="M3.872983346207417,0A3.872983346207417,3.872983346207417,0,1,1,-3.872983346207417,0A3.872983346207417,3.872983346207417,0,1,1,3.872983346207417,0" style="fill: #86ce91; stroke-width: 2; opacity: 0.7;"></path><path transform="translate(194.6222222222222,82.03636363636365)" d="M3.872983346207417,0A3.872983346207417,3.872983346207417,0,1,1,-3.872983346207417,0A3.872983346207417,3.872983346207417,0,1,1,3.872983346207417,0" style="fill: #91d283; stroke-width: 2; opacity: 0.7;"></path><path transform="translate(194.88888888888889,81.96363636363635)" d="M3.872983346207417,0A3.872983346207417,3.872983346207417,0,1,1,-3.872983346207417,0A3.872983346207417,3.872983346207417,0,1,1,3.872983346207417,0" style="fill: #91d283; stroke-width: 2; opacity: 0.7;"></path><path transform="translate(194.44444444444443,81.96363636363635)" d="M3.872983346207417,0A3.872983346207417,3.872983346207417,0,1,1,-3.872983346207417,0A3.872983346207417,3.872983346207417,0,1,1,3.872983346207417,0" style="fill: #91d283; stroke-width: 2; opacity: 0.7;"></path><path transform="translate(194.44444444444443,81.96363636363635)" d="M3.872983346207417,0A3.872983346207417,3.872983346207417,0,1,1,-3.872983346207417,0A3.872983346207417,3.872983346207417,0,1,1,3.872983346207417,0" style="fill: #91d283; stroke-width: 2; opacity: 0.7;"></path><path transform="translate(189.37777777777777,83.09090909090911)" d="M3.872983346207417,0A3.872983346207417,3.872983346207417,0,1,1,-3.872983346207417,0A3.872983346207417,3.872983346207417,0,1,1,3.872983346207417,0" style="fill: #000000; stroke-width: 2; opacity: 0.7;"></path><path transform="translate(190.48888888888888,83.41818181818181)" d="M3.872983346207417,0A3.872983346207417,3.872983346207417,0,1,1,-3.872983346207417,0A3.872983346207417,3.872983346207417,0,1,1,3.872983346207417,0" style="fill: #000000; stroke-width: 2; opacity: 0.7;"></path><path transform="translate(188.26666666666668,81.09090909090908)" d="M3.872983346207417,0A3.872983346207417,3.872983346207417,0,1,1,-3.872983346207417,0A3.872983346207417,3.872983346207417,0,1,1,3.872983346207417,0" style="fill: #000000; stroke-width: 2; opacity: 0.7;"></path><path transform="translate(188.44444444444443,80.10909090909091)" d="M3.872983346207417,0A3.872983346207417,3.872983346207417,0,1,1,-3.872983346207417,0A3.872983346207417,3.872983346207417,0,1,1,3.872983346207417,0" style="fill: #9dd478; stroke-width: 2; opacity: 0.7;"></path><path transform="translate(188.44444444444443,80.10909090909091)" d="M3.872983346207417,0A3.872983346207417,3.872983346207417,0,1,1,-3.872983346207417,0A3.872983346207417,3.872983346207417,0,1,1,3.872983346207417,0" style="fill: #9dd478; stroke-width: 2; opacity: 0.7;"></path><path transform="translate(185.42222222222222,75.89090909090908)" d="M3.872983346207417,0A3.872983346207417,3.872983346207417,0,1,1,-3.872983346207417,0A3.872983346207417,3.872983346207417,0,1,1,3.872983346207417,0" style="fill: #000000; stroke-width: 2; opacity: 0.7;"></path><path transform="translate(39.68888888888889,126.61818181818182)" d="M3.872983346207417,0A3.872983346207417,3.872983346207417,0,1,1,-3.872983346207417,0A3.872983346207417,3.872983346207417,0,1,1,3.872983346207417,0" style="fill: #000000; stroke-width: 2; opacity: 0.7;"></path><path transform="translate(41.77777777777778,122.25454545454545)" d="M3.872983346207417,0A3.872983346207417,3.872983346207417,0,1,1,-3.872983346207417,0A3.872983346207417,3.872983346207417,0,1,1,3.872983346207417,0" style="fill: #000000; stroke-width: 2; opacity: 0.7;"></path><path transform="translate(38.17777777777778,143.74545454545455)" d="M3.872983346207417,0A3.872983346207417,3.872983346207417,0,1,1,-3.872983346207417,0A3.872983346207417,3.872983346207417,0,1,1,3.872983346207417,0" style="fill: #000000; stroke-width: 2; opacity: 0.7;"></path><path transform="translate(46.84444444444444,111.3090909090909)" d="M3.872983346207417,0A3.872983346207417,3.872983346207417,0,1,1,-3.872983346207417,0A3.872983346207417,3.872983346207417,0,1,1,3.872983346207417,0" style="fill: #aad66d; stroke-width: 2; opacity: 0.7;"></path><path transform="translate(46.84444444444444,111.3090909090909)" d="M3.872983346207417,0A3.872983346207417,3.872983346207417,0,1,1,-3.872983346207417,0A3.872983346207417,3.872983346207417,0,1,1,3.872983346207417,0" style="fill: #aad66d; stroke-width: 2; opacity: 0.7;"></path><path transform="translate(31.06666666666666,113.34545454545454)" d="M3.872983346207417,0A3.872983346207417,3.872983346207417,0,1,1,-3.872983346207417,0A3.872983346207417,3.872983346207417,0,1,1,3.872983346207417,0" style="fill: #b6d764; stroke-width: 2; opacity: 0.7;"></path><path transform="translate(31.022222222222222,113.30909090909091)" d="M3.872983346207417,0A3.872983346207417,3.872983346207417,0,1,1,-3.872983346207417,0A3.872983346207417,3.872983346207417,0,1,1,3.872983346207417,0" style="fill: #b6d764; stroke-width: 2; opacity: 0.7;"></path><path transform="translate(30.97777777777777,113.23636363636363)" d="M3.872983346207417,0A3.872983346207417,3.872983346207417,0,1,1,-3.872983346207417,0A3.872983346207417,3.872983346207417,0,1,1,3.872983346207417,0" style="fill: #b6d764; stroke-width: 2; opacity: 0.7;"></path><path transform="translate(23.15555555555556,107.41818181818181)" d="M3.872983346207417,0A3.872983346207417,3.872983346207417,0,1,1,-3.872983346207417,0A3.872983346207417,3.872983346207417,0,1,1,3.872983346207417,0" style="fill: #000000; stroke-width: 2; opacity: 0.7;"></path><path transform="translate(26.977777777777778,108.07272727272726)" d="M3.872983346207417,0A3.872983346207417,3.872983346207417,0,1,1,-3.872983346207417,0A3.872983346207417,3.872983346207417,0,1,1,3.872983346207417,0" style="fill: #c3d65c; stroke-width: 2; opacity: 0.7;"></path><path transform="translate(27.022222222222215,108.10909090909091)" d="M3.872983346207417,0A3.872983346207417,3.872983346207417,0,1,1,-3.872983346207417,0A3.872983346207417,3.872983346207417,0,1,1,3.872983346207417,0" style="fill: #c3d65c; stroke-width: 2; opacity: 0.7;"></path><path transform="translate(26.977777777777778,108.03636363636365)" d="M3.872983346207417,0A3.872983346207417,3.872983346207417,0,1,1,-3.872983346207417,0A3.872983346207417,3.872983346207417,0,1,1,3.872983346207417,0" style="fill: #c3d65c; stroke-width: 2; opacity: 0.7;"></path><path transform="translate(27.733333333333327,106.65454545454544)" d="M3.872983346207417,0A3.872983346207417,3.872983346207417,0,1,1,-3.872983346207417,0A3.872983346207417,3.872983346207417,0,1,1,3.872983346207417,0" style="fill: #c3d65c; stroke-width: 2; opacity: 0.7;"></path><path transform="translate(27.733333333333327,106.65454545454544)" d="M3.872983346207417,0A3.872983346207417,3.872983346207417,0,1,1,-3.872983346207417,0A3.872983346207417,3.872983346207417,0,1,1,3.872983346207417,0" style="fill: #c3d65c; stroke-width: 2; opacity: 0.7;"></path><path transform="translate(27.95555555555555,106.21818181818182)" d="M3.872983346207417,0A3.872983346207417,3.872983346207417,0,1,1,-3.872983346207417,0A3.872983346207417,3.872983346207417,0,1,1,3.872983346207417,0" style="fill: #c3d65c; stroke-width: 2; opacity: 0.7;"></path><path transform="translate(27.95555555555555,106.21818181818182)" d="M3.872983346207417,0A3.872983346207417,3.872983346207417,0,1,1,-3.872983346207417,0A3.872983346207417,3.872983346207417,0,1,1,3.872983346207417,0" style="fill: #c3d65c; stroke-width: 2; opacity: 0.7;"></path><path transform="translate(20.933333333333337,139.2)" d="M3.872983346207417,0A3.872983346207417,3.872983346207417,0,1,1,-3.872983346207417,0A3.872983346207417,3.872983346207417,0,1,1,3.872983346207417,0" style="fill: #000000; stroke-width: 2; opacity: 0.7;"></path><path transform="translate(18.711111111111116,126.8)" d="M3.872983346207417,0A3.872983346207417,3.872983346207417,0,1,1,-3.872983346207417,0A3.872983346207417,3.872983346207417,0,1,1,3.872983346207417,0" style="fill: #cfd555; stroke-width: 2; opacity: 0.7;"></path><path transform="translate(20.04444444444445,127.78181818181818)" d="M3.872983346207417,0A3.872983346207417,3.872983346207417,0,1,1,-3.872983346207417,0A3.872983346207417,3.872983346207417,0,1,1,3.872983346207417,0" style="fill: #cfd555; stroke-width: 2; opacity: 0.7;"></path><path transform="translate(20.04444444444445,127.78181818181818)" d="M3.872983346207417,0A3.872983346207417,3.872983346207417,0,1,1,-3.872983346207417,0A3.872983346207417,3.872983346207417,0,1,1,3.872983346207417,0" style="fill: #cfd555; stroke-width: 2; opacity: 0.7;"></path><path transform="translate(20.04444444444445,127.78181818181818)" d="M3.872983346207417,0A3.872983346207417,3.872983346207417,0,1,1,-3.872983346207417,0A3.872983346207417,3.872983346207417,0,1,1,3.872983346207417,0" style="fill: #cfd555; stroke-width: 2; opacity: 0.7;"></path><path transform="translate(22.22222222222222,125.63636363636364)" d="M3.872983346207417,0A3.872983346207417,3.872983346207417,0,1,1,-3.872983346207417,0A3.872983346207417,3.872983346207417,0,1,1,3.872983346207417,0" style="fill: #cfd555; stroke-width: 2; opacity: 0.7;"></path><path transform="translate(22.22222222222222,125.63636363636364)" d="M3.872983346207417,0A3.872983346207417,3.872983346207417,0,1,1,-3.872983346207417,0A3.872983346207417,3.872983346207417,0,1,1,3.872983346207417,0" style="fill: #cfd555; stroke-width: 2; opacity: 0.7;"></path><path transform="translate(22.22222222222222,125.63636363636364)" d="M3.872983346207417,0A3.872983346207417,3.872983346207417,0,1,1,-3.872983346207417,0A3.872983346207417,3.872983346207417,0,1,1,3.872983346207417,0" style="fill: #cfd555; stroke-width: 2; opacity: 0.7;"></path><path transform="translate(22.22222222222222,125.63636363636364)" d="M3.872983346207417,0A3.872983346207417,3.872983346207417,0,1,1,-3.872983346207417,0A3.872983346207417,3.872983346207417,0,1,1,3.872983346207417,0" style="fill: #cfd555; stroke-width: 2; opacity: 0.7;"></path><path transform="translate(29.022222222222226,128.58181818181816)" d="M3.872983346207417,0A3.872983346207417,3.872983346207417,0,1,1,-3.872983346207417,0A3.872983346207417,3.872983346207417,0,1,1,3.872983346207417,0" style="fill: #cfd555; stroke-width: 2; opacity: 0.7;"></path><path transform="translate(28.133333333333326,130.1818181818182)" d="M3.872983346207417,0A3.872983346207417,3.872983346207417,0,1,1,-3.872983346207417,0A3.872983346207417,3.872983346207417,0,1,1,3.872983346207417,0" style="fill: #cfd555; stroke-width: 2; opacity: 0.7;"></path><path transform="translate(30.04444444444445,130.25454545454545)" d="M3.872983346207417,0A3.872983346207417,3.872983346207417,0,1,1,-3.872983346207417,0A3.872983346207417,3.872983346207417,0,1,1,3.872983346207417,0" style="fill: #cfd555; stroke-width: 2; opacity: 0.7;"></path><path transform="translate(25.377777777777784,131.7818181818182)" d="M3.872983346207417,0A3.872983346207417,3.872983346207417,0,1,1,-3.872983346207417,0A3.872983346207417,3.872983346207417,0,1,1,3.872983346207417,0" style="fill: #cfd555; stroke-width: 2; opacity: 0.7;"></path><path transform="translate(25.377777777777784,131.7818181818182)" d="M3.872983346207417,0A3.872983346207417,3.872983346207417,0,1,1,-3.872983346207417,0A3.872983346207417,3.872983346207417,0,1,1,3.872983346207417,0" style="fill: #cfd555; stroke-width: 2; opacity: 0.7;"></path><path transform="translate(28.666666666666664,132.03636363636366)" d="M3.872983346207417,0A3.872983346207417,3.872983346207417,0,1,1,-3.872983346207417,0A3.872983346207417,3.872983346207417,0,1,1,3.872983346207417,0" style="fill: #cfd555; stroke-width: 2; opacity: 0.7;"></path><path transform="translate(30.08888888888889,130.9090909090909)" d="M3.872983346207417,0A3.872983346207417,3.872983346207417,0,1,1,-3.872983346207417,0A3.872983346207417,3.872983346207417,0,1,1,3.872983346207417,0" style="fill: #cfd555; stroke-width: 2; opacity: 0.7;"></path><path transform="translate(30.04444444444445,130.25454545454545)" d="M3.872983346207417,0A3.872983346207417,3.872983346207417,0,1,1,-3.872983346207417,0A3.872983346207417,3.872983346207417,0,1,1,3.872983346207417,0" style="fill: #cfd555; stroke-width: 2; opacity: 0.7;"></path><path transform="translate(28.666666666666664,132.03636363636366)" d="M3.872983346207417,0A3.872983346207417,3.872983346207417,0,1,1,-3.872983346207417,0A3.872983346207417,3.872983346207417,0,1,1,3.872983346207417,0" style="fill: #cfd555; stroke-width: 2; opacity: 0.7;"></path><path transform="translate(28.666666666666664,132.03636363636366)" d="M3.872983346207417,0A3.872983346207417,3.872983346207417,0,1,1,-3.872983346207417,0A3.872983346207417,3.872983346207417,0,1,1,3.872983346207417,0" style="fill: #cfd555; stroke-width: 2; opacity: 0.7;"></path><path transform="translate(28.133333333333326,130.1818181818182)" d="M3.872983346207417,0A3.872983346207417,3.872983346207417,0,1,1,-3.872983346207417,0A3.872983346207417,3.872983346207417,0,1,1,3.872983346207417,0" style="fill: #cfd555; stroke-width: 2; opacity: 0.7;"></path><path transform="translate(25.73333333333333,141.3090909090909)" d="M3.872983346207417,0A3.872983346207417,3.872983346207417,0,1,1,-3.872983346207417,0A3.872983346207417,3.872983346207417,0,1,1,3.872983346207417,0" style="fill: #dcd34f; stroke-width: 2; opacity: 0.7;"></path><path transform="translate(25.82222222222222,141.27272727272728)" d="M3.872983346207417,0A3.872983346207417,3.872983346207417,0,1,1,-3.872983346207417,0A3.872983346207417,3.872983346207417,0,1,1,3.872983346207417,0" style="fill: #dcd34f; stroke-width: 2; opacity: 0.7;"></path><path transform="translate(25.24444444444444,142.25454545454545)" d="M3.872983346207417,0A3.872983346207417,3.872983346207417,0,1,1,-3.872983346207417,0A3.872983346207417,3.872983346207417,0,1,1,3.872983346207417,0" style="fill: #dcd34f; stroke-width: 2; opacity: 0.7;"></path><path transform="translate(66.53333333333333,133.2)" d="M3.872983346207417,0A3.872983346207417,3.872983346207417,0,1,1,-3.872983346207417,0A3.872983346207417,3.872983346207417,0,1,1,3.872983346207417,0" style="fill: #e7cf4b; stroke-width: 2; opacity: 0.7;"></path><path transform="translate(66.93333333333334,132.03636363636366)" d="M3.872983346207417,0A3.872983346207417,3.872983346207417,0,1,1,-3.872983346207417,0A3.872983346207417,3.872983346207417,0,1,1,3.872983346207417,0" style="fill: #e7cf4b; stroke-width: 2; opacity: 0.7;"></path><path transform="translate(66.75555555555556,132.94545454545454)" d="M3.872983346207417,0A3.872983346207417,3.872983346207417,0,1,1,-3.872983346207417,0A3.872983346207417,3.872983346207417,0,1,1,3.872983346207417,0" style="fill: #e7cf4b; stroke-width: 2; opacity: 0.7;"></path><path transform="translate(67.06666666666666,135.3090909090909)" d="M3.872983346207417,0A3.872983346207417,3.872983346207417,0,1,1,-3.872983346207417,0A3.872983346207417,3.872983346207417,0,1,1,3.872983346207417,0" style="fill: #e7cf4b; stroke-width: 2; opacity: 0.7;"></path><path transform="translate(67.11111111111111,135.38181818181818)" d="M3.872983346207417,0A3.872983346207417,3.872983346207417,0,1,1,-3.872983346207417,0A3.872983346207417,3.872983346207417,0,1,1,3.872983346207417,0" style="fill: #e7cf4b; stroke-width: 2; opacity: 0.7;"></path><path transform="translate(67.06666666666666,135.27272727272725)" d="M3.872983346207417,0A3.872983346207417,3.872983346207417,0,1,1,-3.872983346207417,0A3.872983346207417,3.872983346207417,0,1,1,3.872983346207417,0" style="fill: #e7cf4b; stroke-width: 2; opacity: 0.7;"></path><path transform="translate(43.42222222222222,130.5818181818182)" d="M3.872983346207417,0A3.872983346207417,3.872983346207417,0,1,1,-3.872983346207417,0A3.872983346207417,3.872983346207417,0,1,1,3.872983346207417,0" style="fill: #e7cf4b; stroke-width: 2; opacity: 0.7;"></path><path transform="translate(46.355555555555554,129.74545454545455)" d="M3.872983346207417,0A3.872983346207417,3.872983346207417,0,1,1,-3.872983346207417,0A3.872983346207417,3.872983346207417,0,1,1,3.872983346207417,0" style="fill: #e7cf4b; stroke-width: 2; opacity: 0.7;"></path><path transform="translate(49.24444444444445,128.87272727272727)" d="M3.872983346207417,0A3.872983346207417,3.872983346207417,0,1,1,-3.872983346207417,0A3.872983346207417,3.872983346207417,0,1,1,3.872983346207417,0" style="fill: #e7cf4b; stroke-width: 2; opacity: 0.7;"></path><path transform="translate(49.51111111111111,131.0909090909091)" d="M3.872983346207417,0A3.872983346207417,3.872983346207417,0,1,1,-3.872983346207417,0A3.872983346207417,3.872983346207417,0,1,1,3.872983346207417,0" style="fill: #e7cf4b; stroke-width: 2; opacity: 0.7;"></path><path transform="translate(49.6,128.6909090909091)" d="M3.872983346207417,0A3.872983346207417,3.872983346207417,0,1,1,-3.872983346207417,0A3.872983346207417,3.872983346207417,0,1,1,3.872983346207417,0" style="fill: #e7cf4b; stroke-width: 2; opacity: 0.7;"></path><path transform="translate(50.75555555555555,127.70909090909089)" d="M3.872983346207417,0A3.872983346207417,3.872983346207417,0,1,1,-3.872983346207417,0A3.872983346207417,3.872983346207417,0,1,1,3.872983346207417,0" style="fill: #e7cf4b; stroke-width: 2; opacity: 0.7;"></path><path transform="translate(54,126.69090909090909)" d="M3.872983346207417,0A3.872983346207417,3.872983346207417,0,1,1,-3.872983346207417,0A3.872983346207417,3.872983346207417,0,1,1,3.872983346207417,0" style="fill: #e7cf4b; stroke-width: 2; opacity: 0.7;"></path><path transform="translate(53.24444444444445,127.41818181818182)" d="M3.872983346207417,0A3.872983346207417,3.872983346207417,0,1,1,-3.872983346207417,0A3.872983346207417,3.872983346207417,0,1,1,3.872983346207417,0" style="fill: #e7cf4b; stroke-width: 2; opacity: 0.7;"></path><path transform="translate(52.84444444444445,127.05454545454545)" d="M3.872983346207417,0A3.872983346207417,3.872983346207417,0,1,1,-3.872983346207417,0A3.872983346207417,3.872983346207417,0,1,1,3.872983346207417,0" style="fill: #e7cf4b; stroke-width: 2; opacity: 0.7;"></path><path transform="translate(47.51111111111111,124.32727272727271)" d="M3.872983346207417,0A3.872983346207417,3.872983346207417,0,1,1,-3.872983346207417,0A3.872983346207417,3.872983346207417,0,1,1,3.872983346207417,0" style="fill: #e7cf4b; stroke-width: 2; opacity: 0.7;"></path><path transform="translate(50.933333333333344,124.58181818181816)" d="M3.872983346207417,0A3.872983346207417,3.872983346207417,0,1,1,-3.872983346207417,0A3.872983346207417,3.872983346207417,0,1,1,3.872983346207417,0" style="fill: #e7cf4b; stroke-width: 2; opacity: 0.7;"></path><path transform="translate(51.46666666666667,123.89090909090909)" d="M3.872983346207417,0A3.872983346207417,3.872983346207417,0,1,1,-3.872983346207417,0A3.872983346207417,3.872983346207417,0,1,1,3.872983346207417,0" style="fill: #e7cf4b; stroke-width: 2; opacity: 0.7;"></path><path transform="translate(50.933333333333344,124.54545454545455)" d="M3.872983346207417,0A3.872983346207417,3.872983346207417,0,1,1,-3.872983346207417,0A3.872983346207417,3.872983346207417,0,1,1,3.872983346207417,0" style="fill: #e7cf4b; stroke-width: 2; opacity: 0.7;"></path><path transform="translate(48.17777777777778,125.78181818181818)" d="M3.872983346207417,0A3.872983346207417,3.872983346207417,0,1,1,-3.872983346207417,0A3.872983346207417,3.872983346207417,0,1,1,3.872983346207417,0" style="fill: #e7cf4b; stroke-width: 2; opacity: 0.7;"></path><path transform="translate(49.46666666666667,125.67272727272729)" d="M3.872983346207417,0A3.872983346207417,3.872983346207417,0,1,1,-3.872983346207417,0A3.872983346207417,3.872983346207417,0,1,1,3.872983346207417,0" style="fill: #e7cf4b; stroke-width: 2; opacity: 0.7;"></path><path transform="translate(38.04444444444444,133.52727272727273)" d="M3.872983346207417,0A3.872983346207417,3.872983346207417,0,1,1,-3.872983346207417,0A3.872983346207417,3.872983346207417,0,1,1,3.872983346207417,0" style="fill: #000000; stroke-width: 2; opacity: 0.7;"></path><path transform="translate(30.88888888888889,137.92727272727274)" d="M3.872983346207417,0A3.872983346207417,3.872983346207417,0,1,1,-3.872983346207417,0A3.872983346207417,3.872983346207417,0,1,1,3.872983346207417,0" style="fill: #000000; stroke-width: 2; opacity: 0.7;"></path><path transform="translate(34.62222222222222,133.63636363636363)" d="M3.872983346207417,0A3.872983346207417,3.872983346207417,0,1,1,-3.872983346207417,0A3.872983346207417,3.872983346207417,0,1,1,3.872983346207417,0" style="fill: #000000; stroke-width: 2; opacity: 0.7;"></path><path transform="translate(34.26666666666667,136.54545454545456)" d="M3.872983346207417,0A3.872983346207417,3.872983346207417,0,1,1,-3.872983346207417,0A3.872983346207417,3.872983346207417,0,1,1,3.872983346207417,0" style="fill: #000000; stroke-width: 2; opacity: 0.7;"></path><path transform="translate(33.866666666666674,141.05454545454546)" d="M3.872983346207417,0A3.872983346207417,3.872983346207417,0,1,1,-3.872983346207417,0A3.872983346207417,3.872983346207417,0,1,1,3.872983346207417,0" style="fill: #000000; stroke-width: 2; opacity: 0.7;"></path><path transform="translate(40.044444444444444,137.34545454545454)" d="M3.872983346207417,0A3.872983346207417,3.872983346207417,0,1,1,-3.872983346207417,0A3.872983346207417,3.872983346207417,0,1,1,3.872983346207417,0" style="fill: #000000; stroke-width: 2; opacity: 0.7;"></path><path transform="translate(33.33333333333333,145.2)" d="M3.872983346207417,0A3.872983346207417,3.872983346207417,0,1,1,-3.872983346207417,0A3.872983346207417,3.872983346207417,0,1,1,3.872983346207417,0" style="fill: #000000; stroke-width: 2; opacity: 0.7;"></path><path transform="translate(39.733333333333334,140.83636363636364)" d="M3.872983346207417,0A3.872983346207417,3.872983346207417,0,1,1,-3.872983346207417,0A3.872983346207417,3.872983346207417,0,1,1,3.872983346207417,0" style="fill: #000000; stroke-width: 2; opacity: 0.7;"></path><path transform="translate(36.711111111111116,139.3090909090909)" d="M3.872983346207417,0A3.872983346207417,3.872983346207417,0,1,1,-3.872983346207417,0A3.872983346207417,3.872983346207417,0,1,1,3.872983346207417,0" style="fill: #f9c244; stroke-width: 2; opacity: 0.7;"></path><path transform="translate(37.06666666666666,139.45454545454547)" d="M3.872983346207417,0A3.872983346207417,3.872983346207417,0,1,1,-3.872983346207417,0A3.872983346207417,3.872983346207417,0,1,1,3.872983346207417,0" style="fill: #f9c244; stroke-width: 2; opacity: 0.7;"></path><path transform="translate(37.06666666666666,139.52727272727273)" d="M3.872983346207417,0A3.872983346207417,3.872983346207417,0,1,1,-3.872983346207417,0A3.872983346207417,3.872983346207417,0,1,1,3.872983346207417,0" style="fill: #f9c244; stroke-width: 2; opacity: 0.7;"></path><path transform="translate(49.111111111111114,140.9090909090909)" d="M3.872983346207417,0A3.872983346207417,3.872983346207417,0,1,1,-3.872983346207417,0A3.872983346207417,3.872983346207417,0,1,1,3.872983346207417,0" style="fill: #000000; stroke-width: 2; opacity: 0.7;"></path><path transform="translate(49.955555555555556,136.07272727272726)" d="M3.872983346207417,0A3.872983346207417,3.872983346207417,0,1,1,-3.872983346207417,0A3.872983346207417,3.872983346207417,0,1,1,3.872983346207417,0" style="fill: #000000; stroke-width: 2; opacity: 0.7;"></path><path transform="translate(49.111111111111114,143.63636363636363)" d="M3.872983346207417,0A3.872983346207417,3.872983346207417,0,1,1,-3.872983346207417,0A3.872983346207417,3.872983346207417,0,1,1,3.872983346207417,0" style="fill: #000000; stroke-width: 2; opacity: 0.7;"></path><path transform="translate(49.51111111111111,144.47272727272727)" d="M3.872983346207417,0A3.872983346207417,3.872983346207417,0,1,1,-3.872983346207417,0A3.872983346207417,3.872983346207417,0,1,1,3.872983346207417,0" style="fill: #ffb642; stroke-width: 2; opacity: 0.7;"></path><path transform="translate(49.55555555555556,144.6909090909091)" d="M3.872983346207417,0A3.872983346207417,3.872983346207417,0,1,1,-3.872983346207417,0A3.872983346207417,3.872983346207417,0,1,1,3.872983346207417,0" style="fill: #ffb642; stroke-width: 2; opacity: 0.7;"></path><path transform="translate(49.55555555555556,144.6909090909091)" d="M3.872983346207417,0A3.872983346207417,3.872983346207417,0,1,1,-3.872983346207417,0A3.872983346207417,3.872983346207417,0,1,1,3.872983346207417,0" style="fill: #ffb642; stroke-width: 2; opacity: 0.7;"></path><path transform="translate(54.75555555555556,174.1818181818182)" d="M3.872983346207417,0A3.872983346207417,3.872983346207417,0,1,1,-3.872983346207417,0A3.872983346207417,3.872983346207417,0,1,1,3.872983346207417,0" style="fill: #000000; stroke-width: 2; opacity: 0.7;"></path><path transform="translate(54,178.1818181818182)" d="M3.872983346207417,0A3.872983346207417,3.872983346207417,0,1,1,-3.872983346207417,0A3.872983346207417,3.872983346207417,0,1,1,3.872983346207417,0" style="fill: #ffaa3f; stroke-width: 2; opacity: 0.7;"></path><path transform="translate(51.6,183.34545454545454)" d="M3.872983346207417,0A3.872983346207417,3.872983346207417,0,1,1,-3.872983346207417,0A3.872983346207417,3.872983346207417,0,1,1,3.872983346207417,0" style="fill: #ffaa3f; stroke-width: 2; opacity: 0.7;"></path><path transform="translate(53.91111111111111,178.36363636363637)" d="M3.872983346207417,0A3.872983346207417,3.872983346207417,0,1,1,-3.872983346207417,0A3.872983346207417,3.872983346207417,0,1,1,3.872983346207417,0" style="fill: #ffaa3f; stroke-width: 2; opacity: 0.7;"></path><path transform="translate(51.15555555555555,186.5090909090909)" d="M3.872983346207417,0A3.872983346207417,3.872983346207417,0,1,1,-3.872983346207417,0A3.872983346207417,3.872983346207417,0,1,1,3.872983346207417,0" style="fill: #ffaa3f; stroke-width: 2; opacity: 0.7;"></path><path transform="translate(50.888888888888886,180.8)" d="M3.872983346207417,0A3.872983346207417,3.872983346207417,0,1,1,-3.872983346207417,0A3.872983346207417,3.872983346207417,0,1,1,3.872983346207417,0" style="fill: #ffaa3f; stroke-width: 2; opacity: 0.7;"></path><path transform="translate(50.977777777777774,180.6909090909091)" d="M3.872983346207417,0A3.872983346207417,3.872983346207417,0,1,1,-3.872983346207417,0A3.872983346207417,3.872983346207417,0,1,1,3.872983346207417,0" style="fill: #ffaa3f; stroke-width: 2; opacity: 0.7;"></path><path transform="translate(50.888888888888886,180.8)" d="M3.872983346207417,0A3.872983346207417,3.872983346207417,0,1,1,-3.872983346207417,0A3.872983346207417,3.872983346207417,0,1,1,3.872983346207417,0" style="fill: #ffaa3f; stroke-width: 2; opacity: 0.7;"></path><path transform="translate(50.17777777777778,178.54545454545456)" d="M3.872983346207417,0A3.872983346207417,3.872983346207417,0,1,1,-3.872983346207417,0A3.872983346207417,3.872983346207417,0,1,1,3.872983346207417,0" style="fill: #ffaa3f; stroke-width: 2; opacity: 0.7;"></path><path transform="translate(46.97777777777778,179.78181818181818)" d="M3.872983346207417,0A3.872983346207417,3.872983346207417,0,1,1,-3.872983346207417,0A3.872983346207417,3.872983346207417,0,1,1,3.872983346207417,0" style="fill: #ffaa3f; stroke-width: 2; opacity: 0.7;"></path><path transform="translate(46.44444444444444,185.52727272727273)" d="M3.872983346207417,0A3.872983346207417,3.872983346207417,0,1,1,-3.872983346207417,0A3.872983346207417,3.872983346207417,0,1,1,3.872983346207417,0" style="fill: #ffaa3f; stroke-width: 2; opacity: 0.7;"></path><path transform="translate(61.199999999999996,182.21818181818182)" d="M3.872983346207417,0A3.872983346207417,3.872983346207417,0,1,1,-3.872983346207417,0A3.872983346207417,3.872983346207417,0,1,1,3.872983346207417,0" style="fill: #ffaa3f; stroke-width: 2; opacity: 0.7;"></path><path transform="translate(61.37777777777777,187.34545454545454)" d="M3.872983346207417,0A3.872983346207417,3.872983346207417,0,1,1,-3.872983346207417,0A3.872983346207417,3.872983346207417,0,1,1,3.872983346207417,0" style="fill: #ffaa3f; stroke-width: 2; opacity: 0.7;"></path><path transform="translate(62.044444444444444,187.0181818181818)" d="M3.872983346207417,0A3.872983346207417,3.872983346207417,0,1,1,-3.872983346207417,0A3.872983346207417,3.872983346207417,0,1,1,3.872983346207417,0" style="fill: #ffaa3f; stroke-width: 2; opacity: 0.7;"></path><path transform="translate(60.75555555555555,183.4909090909091)" d="M3.872983346207417,0A3.872983346207417,3.872983346207417,0,1,1,-3.872983346207417,0A3.872983346207417,3.872983346207417,0,1,1,3.872983346207417,0" style="fill: #ffaa3f; stroke-width: 2; opacity: 0.7;"></path><path transform="translate(59.73333333333333,184.47272727272727)" d="M3.872983346207417,0A3.872983346207417,3.872983346207417,0,1,1,-3.872983346207417,0A3.872983346207417,3.872983346207417,0,1,1,3.872983346207417,0" style="fill: #ffaa3f; stroke-width: 2; opacity: 0.7;"></path><path transform="translate(61.199999999999996,182.29090909090908)" d="M3.872983346207417,0A3.872983346207417,3.872983346207417,0,1,1,-3.872983346207417,0A3.872983346207417,3.872983346207417,0,1,1,3.872983346207417,0" style="fill: #ffaa3f; stroke-width: 2; opacity: 0.7;"></path><path transform="translate(64.57777777777778,183.0181818181818)" d="M3.872983346207417,0A3.872983346207417,3.872983346207417,0,1,1,-3.872983346207417,0A3.872983346207417,3.872983346207417,0,1,1,3.872983346207417,0" style="fill: #ffaa3f; stroke-width: 2; opacity: 0.7;"></path><path transform="translate(59.82222222222222,184.4)" d="M3.872983346207417,0A3.872983346207417,3.872983346207417,0,1,1,-3.872983346207417,0A3.872983346207417,3.872983346207417,0,1,1,3.872983346207417,0" style="fill: #ffaa3f; stroke-width: 2; opacity: 0.7;"></path><path transform="translate(61.422222222222224,178.5818181818182)" d="M3.872983346207417,0A3.872983346207417,3.872983346207417,0,1,1,-3.872983346207417,0A3.872983346207417,3.872983346207417,0,1,1,3.872983346207417,0" style="fill: #ffaa3f; stroke-width: 2; opacity: 0.7;"></path><path transform="translate(58.666666666666664,178.6909090909091)" d="M3.872983346207417,0A3.872983346207417,3.872983346207417,0,1,1,-3.872983346207417,0A3.872983346207417,3.872983346207417,0,1,1,3.872983346207417,0" style="fill: #ffaa3f; stroke-width: 2; opacity: 0.7;"></path><path transform="translate(55.68888888888889,185.96363636363637)" d="M3.872983346207417,0A3.872983346207417,3.872983346207417,0,1,1,-3.872983346207417,0A3.872983346207417,3.872983346207417,0,1,1,3.872983346207417,0" style="fill: #ffaa3f; stroke-width: 2; opacity: 0.7;"></path><path transform="translate(55.733333333333334,186)" d="M3.872983346207417,0A3.872983346207417,3.872983346207417,0,1,1,-3.872983346207417,0A3.872983346207417,3.872983346207417,0,1,1,3.872983346207417,0" style="fill: #ffaa3f; stroke-width: 2; opacity: 0.7;"></path><path transform="translate(57.199999999999996,180.87272727272727)" d="M3.872983346207417,0A3.872983346207417,3.872983346207417,0,1,1,-3.872983346207417,0A3.872983346207417,3.872983346207417,0,1,1,3.872983346207417,0" style="fill: #ffaa3f; stroke-width: 2; opacity: 0.7;"></path><path transform="translate(55.68888888888889,183.05454545454546)" d="M3.872983346207417,0A3.872983346207417,3.872983346207417,0,1,1,-3.872983346207417,0A3.872983346207417,3.872983346207417,0,1,1,3.872983346207417,0" style="fill: #ffaa3f; stroke-width: 2; opacity: 0.7;"></path><path transform="translate(57.28888888888889,180.6909090909091)" d="M3.872983346207417,0A3.872983346207417,3.872983346207417,0,1,1,-3.872983346207417,0A3.872983346207417,3.872983346207417,0,1,1,3.872983346207417,0" style="fill: #ffaa3f; stroke-width: 2; opacity: 0.7;"></path><path transform="translate(55.68888888888889,183.05454545454546)" d="M3.872983346207417,0A3.872983346207417,3.872983346207417,0,1,1,-3.872983346207417,0A3.872983346207417,3.872983346207417,0,1,1,3.872983346207417,0" style="fill: #ffaa3f; stroke-width: 2; opacity: 0.7;"></path><path transform="translate(55.68888888888889,183.05454545454546)" d="M3.872983346207417,0A3.872983346207417,3.872983346207417,0,1,1,-3.872983346207417,0A3.872983346207417,3.872983346207417,0,1,1,3.872983346207417,0" style="fill: #ffaa3f; stroke-width: 2; opacity: 0.7;"></path><path transform="translate(55.91111111111111,181.74545454545455)" d="M3.872983346207417,0A3.872983346207417,3.872983346207417,0,1,1,-3.872983346207417,0A3.872983346207417,3.872983346207417,0,1,1,3.872983346207417,0" style="fill: #ffaa3f; stroke-width: 2; opacity: 0.7;"></path><path transform="translate(57.28888888888889,180.6909090909091)" d="M3.872983346207417,0A3.872983346207417,3.872983346207417,0,1,1,-3.872983346207417,0A3.872983346207417,3.872983346207417,0,1,1,3.872983346207417,0" style="fill: #ffaa3f; stroke-width: 2; opacity: 0.7;"></path></g><g class="mark-group role-legend"><g transform="translate(218,0)"><path class="background" d="M0,0h140v456h-140Z" style="pointer-events: none; fill: none;"></path><g><g class="mark-group role-legend-entry"><g transform="translate(0,16)"><path class="background" d="M0,0h0v0h0Z" style="pointer-events: none; fill: none;"></path><g><g class="mark-group role-scope"><g transform="translate(0,0)"><path class="background" d="M0,0h80v11h-80Z" style="pointer-events: none; fill: none; opacity: 1;"></path><g><g class="mark-symbol role-legend-symbol" style="pointer-events: none;"><path transform="translate(6,6)" d="M5,0A5,5,0,1,1,-5,0A5,5,0,1,1,5,0" style="fill: #000000; stroke-width: 1.5; opacity: 0.7;"></path></g><g class="mark-text role-legend-label" style="pointer-events: none;"><text text-anchor="start" transform="translate(16,9)" style="font-family: sans-serif; font-size: 10px; fill: #000; opacity: 1;">other</text></g></g></g><g transform="translate(0,13)"><path class="background" d="M0,0h80v11h-80Z" style="pointer-events: none; fill: none; opacity: 1;"></path><g><g class="mark-symbol role-legend-symbol" style="pointer-events: none;"><path transform="translate(6,6)" d="M5,0A5,5,0,1,1,-5,0A5,5,0,1,1,5,0" style="fill: #5c22be; stroke-width: 1.5; opacity: 0.7;"></path></g><g class="mark-text role-legend-label" style="pointer-events: none;"><text text-anchor="start" transform="translate(16,9)" style="font-family: sans-serif; font-size: 10px; fill: #000; opacity: 1;">clade_0</text></g></g></g><g transform="translate(0,26)"><path class="background" d="M0,0h80v11h-80Z" style="pointer-events: none; fill: none; opacity: 1;"></path><g><g class="mark-symbol role-legend-symbol" style="pointer-events: none;"><path transform="translate(6,6)" d="M5,0A5,5,0,1,1,-5,0A5,5,0,1,1,5,0" style="fill: #5330cd; stroke-width: 1.5; opacity: 0.7;"></path></g><g class="mark-text role-legend-label" style="pointer-events: none;"><text text-anchor="start" transform="translate(16,9)" style="font-family: sans-serif; font-size: 10px; fill: #000; opacity: 1;">clade_1</text></g></g></g><g transform="translate(0,39)"><path class="background" d="M0,0h80v11h-80Z" style="pointer-events: none; fill: none; opacity: 1;"></path><g><g class="mark-symbol role-legend-symbol" style="pointer-events: none;"><path transform="translate(6,6)" d="M5,0A5,5,0,1,1,-5,0A5,5,0,1,1,5,0" style="fill: #71c4ac; stroke-width: 1.5; opacity: 0.7;"></path></g><g class="mark-text role-legend-label" style="pointer-events: none;"><text text-anchor="start" transform="translate(16,9)" style="font-family: sans-serif; font-size: 10px; fill: #000; opacity: 1;">clade_2</text></g></g></g><g transform="translate(0,52)"><path class="background" d="M0,0h80v11h-80Z" style="pointer-events: none; fill: none; opacity: 1;"></path><g><g class="mark-symbol role-legend-symbol" style="pointer-events: none;"><path transform="translate(6,6)" d="M5,0A5,5,0,1,1,-5,0A5,5,0,1,1,5,0" style="fill: #e7cf4b; stroke-width: 1.5; opacity: 0.7;"></path></g><g class="mark-text role-legend-label" style="pointer-events: none;"><text text-anchor="start" transform="translate(16,9)" style="font-family: sans-serif; font-size: 10px; fill: #000; opacity: 1;">clade_3</text></g></g></g><g transform="translate(0,65)"><path class="background" d="M0,0h80v11h-80Z" style="pointer-events: none; fill: none; opacity: 1;"></path><g><g class="mark-symbol role-legend-symbol" style="pointer-events: none;"><path transform="translate(6,6)" d="M5,0A5,5,0,1,1,-5,0A5,5,0,1,1,5,0" style="fill: #ff9a3c; stroke-width: 1.5; opacity: 0.7;"></path></g><g class="mark-text role-legend-label" style="pointer-events: none;"><text text-anchor="start" transform="translate(16,9)" style="font-family: sans-serif; font-size: 10px; fill: #000; opacity: 1;">clade_4</text></g></g></g><g transform="translate(0,78)"><path class="background" d="M0,0h80v11h-80Z" style="pointer-events: none; fill: none; opacity: 1;"></path><g><g class="mark-symbol role-legend-symbol" style="pointer-events: none;"><path transform="translate(6,6)" d="M5,0A5,5,0,1,1,-5,0A5,5,0,1,1,5,0" style="fill: #ff8939; stroke-width: 1.5; opacity: 0.7;"></path></g><g class="mark-text role-legend-label" style="pointer-events: none;"><text text-anchor="start" transform="translate(16,9)" style="font-family: sans-serif; font-size: 10px; fill: #000; opacity: 1;">clade_5</text></g></g></g><g transform="translate(0,91)"><path class="background" d="M0,0h80v11h-80Z" style="pointer-events: none; fill: none; opacity: 1;"></path><g><g class="mark-symbol role-legend-symbol" style="pointer-events: none;"><path transform="translate(6,6)" d="M5,0A5,5,0,1,1,-5,0A5,5,0,1,1,5,0" style="fill: #ff7535; stroke-width: 1.5; opacity: 0.7;"></path></g><g class="mark-text role-legend-label" style="pointer-events: none;"><text text-anchor="start" transform="translate(16,9)" style="font-family: sans-serif; font-size: 10px; fill: #000; opacity: 1;">clade_6</text></g></g></g><g transform="translate(0,104)"><path class="background" d="M0,0h80v11h-80Z" style="pointer-events: none; fill: none; opacity: 1;"></path><g><g class="mark-symbol role-legend-symbol" style="pointer-events: none;"><path transform="translate(6,6)" d="M5,0A5,5,0,1,1,-5,0A5,5,0,1,1,5,0" style="fill: #ff6131; stroke-width: 1.5; opacity: 0.7;"></path></g><g class="mark-text role-legend-label" style="pointer-events: none;"><text text-anchor="start" transform="translate(16,9)" style="font-family: sans-serif; font-size: 10px; fill: #000; opacity: 1;">clade_7</text></g></g></g><g transform="translate(0,117)"><path class="background" d="M0,0h80v11h-80Z" style="pointer-events: none; fill: none; opacity: 1;"></path><g><g class="mark-symbol role-legend-symbol" style="pointer-events: none;"><path transform="translate(6,6)" d="M5,0A5,5,0,1,1,-5,0A5,5,0,1,1,5,0" style="fill: #fd4b2c; stroke-width: 1.5; opacity: 0.7;"></path></g><g class="mark-text role-legend-label" style="pointer-events: none;"><text text-anchor="start" transform="translate(16,9)" style="font-family: sans-serif; font-size: 10px; fill: #000; opacity: 1;">clade_8</text></g></g></g><g transform="translate(0,130)"><path class="background" d="M0,0h80v11h-80Z" style="pointer-events: none; fill: none; opacity: 1;"></path><g><g class="mark-symbol role-legend-symbol" style="pointer-events: none;"><path transform="translate(6,6)" d="M5,0A5,5,0,1,1,-5,0A5,5,0,1,1,5,0" style="fill: #f93529; stroke-width: 1.5; opacity: 0.7;"></path></g><g class="mark-text role-legend-label" style="pointer-events: none;"><text text-anchor="start" transform="translate(16,9)" style="font-family: sans-serif; font-size: 10px; fill: #000; opacity: 1;">clade_9</text></g></g></g><g transform="translate(0,143)"><path class="background" d="M0,0h80v11h-80Z" style="pointer-events: none; fill: none; opacity: 1;"></path><g><g class="mark-symbol role-legend-symbol" style="pointer-events: none;"><path transform="translate(6,6)" d="M5,0A5,5,0,1,1,-5,0A5,5,0,1,1,5,0" style="fill: #4b3ddb; stroke-width: 1.5; opacity: 0.7;"></path></g><g class="mark-text role-legend-label" style="pointer-events: none;"><text text-anchor="start" transform="translate(16,9)" style="font-family: sans-serif; font-size: 10px; fill: #000; opacity: 1;">clade_10</text></g></g></g><g transform="translate(0,156)"><path class="background" d="M0,0h80v11h-80Z" style="pointer-events: none; fill: none; opacity: 1;"></path><g><g class="mark-symbol role-legend-symbol" style="pointer-events: none;"><path transform="translate(6,6)" d="M5,0A5,5,0,1,1,-5,0A5,5,0,1,1,5,0" style="fill: #474ee3; stroke-width: 1.5; opacity: 0.7;"></path></g><g class="mark-text role-legend-label" style="pointer-events: none;"><text text-anchor="start" transform="translate(16,9)" style="font-family: sans-serif; font-size: 10px; fill: #000; opacity: 1;">clade_11</text></g></g></g><g transform="translate(0,169)"><path class="background" d="M0,0h80v11h-80Z" style="pointer-events: none; fill: none; opacity: 1;"></path><g><g class="mark-symbol role-legend-symbol" style="pointer-events: none;"><path transform="translate(6,6)" d="M5,0A5,5,0,1,1,-5,0A5,5,0,1,1,5,0" style="fill: #4760e9; stroke-width: 1.5; opacity: 0.7;"></path></g><g class="mark-text role-legend-label" style="pointer-events: none;"><text text-anchor="start" transform="translate(16,9)" style="font-family: sans-serif; font-size: 10px; fill: #000; opacity: 1;">clade_12</text></g></g></g><g transform="translate(0,182)"><path class="background" d="M0,0h80v11h-80Z" style="pointer-events: none; fill: none; opacity: 1;"></path><g><g class="mark-symbol role-legend-symbol" style="pointer-events: none;"><path transform="translate(6,6)" d="M5,0A5,5,0,1,1,-5,0A5,5,0,1,1,5,0" style="fill: #4971eb; stroke-width: 1.5; opacity: 0.7;"></path></g><g class="mark-text role-legend-label" style="pointer-events: none;"><text text-anchor="start" transform="translate(16,9)" style="font-family: sans-serif; font-size: 10px; fill: #000; opacity: 1;">clade_13</text></g></g></g><g transform="translate(0,195)"><path class="background" d="M0,0h80v11h-80Z" style="pointer-events: none; fill: none; opacity: 1;"></path><g><g class="mark-symbol role-legend-symbol" style="pointer-events: none;"><path transform="translate(6,6)" d="M5,0A5,5,0,1,1,-5,0A5,5,0,1,1,5,0" style="fill: #4b82e9; stroke-width: 1.5; opacity: 0.7;"></path></g><g class="mark-text role-legend-label" style="pointer-events: none;"><text text-anchor="start" transform="translate(16,9)" style="font-family: sans-serif; font-size: 10px; fill: #000; opacity: 1;">clade_14</text></g></g></g><g transform="translate(0,208)"><path class="background" d="M0,0h80v11h-80Z" style="pointer-events: none; fill: none; opacity: 1;"></path><g><g class="mark-symbol role-legend-symbol" style="pointer-events: none;"><path transform="translate(6,6)" d="M5,0A5,5,0,1,1,-5,0A5,5,0,1,1,5,0" style="fill: #4f92e5; stroke-width: 1.5; opacity: 0.7;"></path></g><g class="mark-text role-legend-label" style="pointer-events: none;"><text text-anchor="start" transform="translate(16,9)" style="font-family: sans-serif; font-size: 10px; fill: #000; opacity: 1;">clade_15</text></g></g></g><g transform="translate(0,221)"><path class="background" d="M0,0h80v11h-80Z" style="pointer-events: none; fill: none; opacity: 1;"></path><g><g class="mark-symbol role-legend-symbol" style="pointer-events: none;"><path transform="translate(6,6)" d="M5,0A5,5,0,1,1,-5,0A5,5,0,1,1,5,0" style="fill: #549fdc; stroke-width: 1.5; opacity: 0.7;"></path></g><g class="mark-text role-legend-label" style="pointer-events: none;"><text text-anchor="start" transform="translate(16,9)" style="font-family: sans-serif; font-size: 10px; fill: #000; opacity: 1;">clade_16</text></g></g></g><g transform="translate(0,234)"><path class="background" d="M0,0h80v11h-80Z" style="pointer-events: none; fill: none; opacity: 1;"></path><g><g class="mark-symbol role-legend-symbol" style="pointer-events: none;"><path transform="translate(6,6)" d="M5,0A5,5,0,1,1,-5,0A5,5,0,1,1,5,0" style="fill: #5aabd3; stroke-width: 1.5; opacity: 0.7;"></path></g><g class="mark-text role-legend-label" style="pointer-events: none;"><text text-anchor="start" transform="translate(16,9)" style="font-family: sans-serif; font-size: 10px; fill: #000; opacity: 1;">clade_17</text></g></g></g><g transform="translate(0,247)"><path class="background" d="M0,0h80v11h-80Z" style="pointer-events: none; fill: none; opacity: 1;"></path><g><g class="mark-symbol role-legend-symbol" style="pointer-events: none;"><path transform="translate(6,6)" d="M5,0A5,5,0,1,1,-5,0A5,5,0,1,1,5,0" style="fill: #61b4c6; stroke-width: 1.5; opacity: 0.7;"></path></g><g class="mark-text role-legend-label" style="pointer-events: none;"><text text-anchor="start" transform="translate(16,9)" style="font-family: sans-serif; font-size: 10px; fill: #000; opacity: 1;">clade_18</text></g></g></g><g transform="translate(0,260)"><path class="background" d="M0,0h80v11h-80Z" style="pointer-events: none; fill: none; opacity: 1;"></path><g><g class="mark-symbol role-legend-symbol" style="pointer-events: none;"><path transform="translate(6,6)" d="M5,0A5,5,0,1,1,-5,0A5,5,0,1,1,5,0" style="fill: #68bdba; stroke-width: 1.5; opacity: 0.7;"></path></g><g class="mark-text role-legend-label" style="pointer-events: none;"><text text-anchor="start" transform="translate(16,9)" style="font-family: sans-serif; font-size: 10px; fill: #000; opacity: 1;">clade_19</text></g></g></g><g transform="translate(0,273)"><path class="background" d="M0,0h80v11h-80Z" style="pointer-events: none; fill: none; opacity: 1;"></path><g><g class="mark-symbol role-legend-symbol" style="pointer-events: none;"><path transform="translate(6,6)" d="M5,0A5,5,0,1,1,-5,0A5,5,0,1,1,5,0" style="fill: #7bca9d; stroke-width: 1.5; opacity: 0.7;"></path></g><g class="mark-text role-legend-label" style="pointer-events: none;"><text text-anchor="start" transform="translate(16,9)" style="font-family: sans-serif; font-size: 10px; fill: #000; opacity: 1;">clade_20</text></g></g></g><g transform="translate(0,286)"><path class="background" d="M0,0h80v11h-80Z" style="pointer-events: none; fill: none; opacity: 1;"></path><g><g class="mark-symbol role-legend-symbol" style="pointer-events: none;"><path transform="translate(6,6)" d="M5,0A5,5,0,1,1,-5,0A5,5,0,1,1,5,0" style="fill: #86ce91; stroke-width: 1.5; opacity: 0.7;"></path></g><g class="mark-text role-legend-label" style="pointer-events: none;"><text text-anchor="start" transform="translate(16,9)" style="font-family: sans-serif; font-size: 10px; fill: #000; opacity: 1;">clade_21</text></g></g></g><g transform="translate(0,299)"><path class="background" d="M0,0h80v11h-80Z" style="pointer-events: none; fill: none; opacity: 1;"></path><g><g class="mark-symbol role-legend-symbol" style="pointer-events: none;"><path transform="translate(6,6)" d="M5,0A5,5,0,1,1,-5,0A5,5,0,1,1,5,0" style="fill: #91d283; stroke-width: 1.5; opacity: 0.7;"></path></g><g class="mark-text role-legend-label" style="pointer-events: none;"><text text-anchor="start" transform="translate(16,9)" style="font-family: sans-serif; font-size: 10px; fill: #000; opacity: 1;">clade_22</text></g></g></g><g transform="translate(0,312)"><path class="background" d="M0,0h80v11h-80Z" style="pointer-events: none; fill: none; opacity: 1;"></path><g><g class="mark-symbol role-legend-symbol" style="pointer-events: none;"><path transform="translate(6,6)" d="M5,0A5,5,0,1,1,-5,0A5,5,0,1,1,5,0" style="fill: #9dd478; stroke-width: 1.5; opacity: 0.7;"></path></g><g class="mark-text role-legend-label" style="pointer-events: none;"><text text-anchor="start" transform="translate(16,9)" style="font-family: sans-serif; font-size: 10px; fill: #000; opacity: 1;">clade_23</text></g></g></g><g transform="translate(0,325)"><path class="background" d="M0,0h80v11h-80Z" style="pointer-events: none; fill: none; opacity: 1;"></path><g><g class="mark-symbol role-legend-symbol" style="pointer-events: none;"><path transform="translate(6,6)" d="M5,0A5,5,0,1,1,-5,0A5,5,0,1,1,5,0" style="fill: #aad66d; stroke-width: 1.5; opacity: 0.7;"></path></g><g class="mark-text role-legend-label" style="pointer-events: none;"><text text-anchor="start" transform="translate(16,9)" style="font-family: sans-serif; font-size: 10px; fill: #000; opacity: 1;">clade_24</text></g></g></g><g transform="translate(0,338)"><path class="background" d="M0,0h80v11h-80Z" style="pointer-events: none; fill: none; opacity: 1;"></path><g><g class="mark-symbol role-legend-symbol" style="pointer-events: none;"><path transform="translate(6,6)" d="M5,0A5,5,0,1,1,-5,0A5,5,0,1,1,5,0" style="fill: #b6d764; stroke-width: 1.5; opacity: 0.7;"></path></g><g class="mark-text role-legend-label" style="pointer-events: none;"><text text-anchor="start" transform="translate(16,9)" style="font-family: sans-serif; font-size: 10px; fill: #000; opacity: 1;">clade_25</text></g></g></g><g transform="translate(0,351)"><path class="background" d="M0,0h80v11h-80Z" style="pointer-events: none; fill: none; opacity: 1;"></path><g><g class="mark-symbol role-legend-symbol" style="pointer-events: none;"><path transform="translate(6,6)" d="M5,0A5,5,0,1,1,-5,0A5,5,0,1,1,5,0" style="fill: #c3d65c; stroke-width: 1.5; opacity: 0.7;"></path></g><g class="mark-text role-legend-label" style="pointer-events: none;"><text text-anchor="start" transform="translate(16,9)" style="font-family: sans-serif; font-size: 10px; fill: #000; opacity: 1;">clade_26</text></g></g></g><g transform="translate(0,364)"><path class="background" d="M0,0h80v11h-80Z" style="pointer-events: none; fill: none; opacity: 1;"></path><g><g class="mark-symbol role-legend-symbol" style="pointer-events: none;"><path transform="translate(6,6)" d="M5,0A5,5,0,1,1,-5,0A5,5,0,1,1,5,0" style="fill: #cfd555; stroke-width: 1.5; opacity: 0.7;"></path></g><g class="mark-text role-legend-label" style="pointer-events: none;"><text text-anchor="start" transform="translate(16,9)" style="font-family: sans-serif; font-size: 10px; fill: #000; opacity: 1;">clade_27</text></g></g></g><g transform="translate(0,377)"><path class="background" d="M0,0h80v11h-80Z" style="pointer-events: none; fill: none; opacity: 1;"></path><g><g class="mark-symbol role-legend-symbol" style="pointer-events: none;"><path transform="translate(6,6)" d="M5,0A5,5,0,1,1,-5,0A5,5,0,1,1,5,0" style="fill: #dcd34f; stroke-width: 1.5; opacity: 0.7;"></path></g><g class="mark-text role-legend-label" style="pointer-events: none;"><text text-anchor="start" transform="translate(16,9)" style="font-family: sans-serif; font-size: 10px; fill: #000; opacity: 1;">clade_28</text></g></g></g><g transform="translate(0,390)"><path class="background" d="M0,0h80v11h-80Z" style="pointer-events: none; fill: none; opacity: 1;"></path><g><g class="mark-symbol role-legend-symbol" style="pointer-events: none;"><path transform="translate(6,6)" d="M5,0A5,5,0,1,1,-5,0A5,5,0,1,1,5,0" style="fill: #e7cf4b; stroke-width: 1.5; opacity: 0.7;"></path></g><g class="mark-text role-legend-label" style="pointer-events: none;"><text text-anchor="start" transform="translate(16,9)" style="font-family: sans-serif; font-size: 10px; fill: #000; opacity: 1;">clade_29</text></g></g></g><g transform="translate(0,403)"><path class="background" d="M0,0h80v11h-80Z" style="pointer-events: none; fill: none; opacity: 1;"></path><g><g class="mark-symbol role-legend-symbol" style="pointer-events: none;"><path transform="translate(6,6)" d="M5,0A5,5,0,1,1,-5,0A5,5,0,1,1,5,0" style="fill: #f9c244; stroke-width: 1.5; opacity: 0.7;"></path></g><g class="mark-text role-legend-label" style="pointer-events: none;"><text text-anchor="start" transform="translate(16,9)" style="font-family: sans-serif; font-size: 10px; fill: #000; opacity: 1;">clade_30</text></g></g></g><g transform="translate(0,416)"><path class="background" d="M0,0h80v11h-80Z" style="pointer-events: none; fill: none; opacity: 1;"></path><g><g class="mark-symbol role-legend-symbol" style="pointer-events: none;"><path transform="translate(6,6)" d="M5,0A5,5,0,1,1,-5,0A5,5,0,1,1,5,0" style="fill: #ffb642; stroke-width: 1.5; opacity: 0.7;"></path></g><g class="mark-text role-legend-label" style="pointer-events: none;"><text text-anchor="start" transform="translate(16,9)" style="font-family: sans-serif; font-size: 10px; fill: #000; opacity: 1;">clade_31</text></g></g></g><g transform="translate(0,429)"><path class="background" d="M0,0h80v11h-80Z" style="pointer-events: none; fill: none; opacity: 1;"></path><g><g class="mark-symbol role-legend-symbol" style="pointer-events: none;"><path transform="translate(6,6)" d="M5,0A5,5,0,1,1,-5,0A5,5,0,1,1,5,0" style="fill: #ffaa3f; stroke-width: 1.5; opacity: 0.7;"></path></g><g class="mark-text role-legend-label" style="pointer-events: none;"><text text-anchor="start" transform="translate(16,9)" style="font-family: sans-serif; font-size: 10px; fill: #000; opacity: 1;">clade_32</text></g></g></g></g></g></g></g><g class="mark-text role-legend-title" style="pointer-events: none;"><text text-anchor="start" transform="translate(0,9)" style="font-family: sans-serif; font-size: 11px; font-weight: bold; fill: #000; opacity: 1;">clade_membership</text></g></g></g></g><g class="mark-group role-axis"><g transform="translate(0.5,200.5)"><path class="background" d="M0,0h0v0h0Z" style="pointer-events: none; fill: none;"></path><g><g class="mark-rule role-axis-tick" style="pointer-events: none;"><line transform="translate(22,0)" x2="0" y2="5" style="fill: none; stroke: #888; stroke-width: 1; opacity: 1;"></line><line transform="translate(67,0)" x2="0" y2="5" style="fill: none; stroke: #888; stroke-width: 1; opacity: 1;"></line><line transform="translate(111,0)" x2="0" y2="5" style="fill: none; stroke: #888; stroke-width: 1; opacity: 1;"></line><line transform="translate(156,0)" x2="0" y2="5" style="fill: none; stroke: #888; stroke-width: 1; opacity: 1;"></line><line transform="translate(200,0)" x2="0" y2="5" style="fill: none; stroke: #888; stroke-width: 1; opacity: 1;"></line></g><g class="mark-text role-axis-label" style="pointer-events: none;"><text text-anchor="middle" transform="translate(22.22222222222222,15)" style="font-family: sans-serif; font-size: 10px; fill: #000; opacity: 1;">-20</text><text text-anchor="middle" transform="translate(66.66666666666666,15)" style="font-family: sans-serif; font-size: 10px; fill: #000; opacity: 1;">-10</text><text text-anchor="middle" transform="translate(111.11111111111111,15)" style="font-family: sans-serif; font-size: 10px; fill: #000; opacity: 1;">0</text><text text-anchor="middle" transform="translate(155.55555555555557,15)" style="font-family: sans-serif; font-size: 10px; fill: #000; opacity: 1;">10</text><text text-anchor="end" transform="translate(200,15)" style="font-family: sans-serif; font-size: 10px; fill: #000; opacity: 1;">20</text></g><g class="mark-rule role-axis-domain" style="pointer-events: none;"><line transform="translate(0,0)" x2="200" y2="0" style="fill: none; stroke: #888; stroke-width: 1; opacity: 1;"></line></g><g class="mark-text role-axis-title" style="pointer-events: none;"><text text-anchor="middle" transform="translate(100,30)" style="font-family: sans-serif; font-size: 11px; font-weight: bold; fill: #000; opacity: 1;">tsne_x</text></g></g></g></g><g class="mark-group role-axis"><g transform="translate(0.5,0.5)"><path class="background" d="M0,0h0v0h0Z" style="pointer-events: none; fill: none;"></path><g><g class="mark-rule role-axis-tick" style="pointer-events: none;"><line transform="translate(0,200)" x2="-5" y2="0" style="fill: none; stroke: #888; stroke-width: 1; opacity: 1;"></line><line transform="translate(0,164)" x2="-5" y2="0" style="fill: none; stroke: #888; stroke-width: 1; opacity: 1;"></line><line transform="translate(0,127)" x2="-5" y2="0" style="fill: none; stroke: #888; stroke-width: 1; opacity: 1;"></line><line transform="translate(0,91)" x2="-5" y2="0" style="fill: none; stroke: #888; stroke-width: 1; opacity: 1;"></line><line transform="translate(0,55)" x2="-5" y2="0" style="fill: none; stroke: #888; stroke-width: 1; opacity: 1;"></line><line transform="translate(0,18)" x2="-5" y2="0" style="fill: none; stroke: #888; stroke-width: 1; opacity: 1;"></line></g><g class="mark-text role-axis-label" style="pointer-events: none;"><text text-anchor="end" transform="translate(-7,203)" style="font-family: sans-serif; font-size: 10px; fill: #000; opacity: 1;">-30</text><text text-anchor="end" transform="translate(-7,166.63636363636363)" style="font-family: sans-serif; font-size: 10px; fill: #000; opacity: 1;">-20</text><text text-anchor="end" transform="translate(-7,130.27272727272725)" style="font-family: sans-serif; font-size: 10px; fill: #000; opacity: 1;">-10</text><text text-anchor="end" transform="translate(-7,93.90909090909092)" style="font-family: sans-serif; font-size: 10px; fill: #000; opacity: 1;">0</text><text text-anchor="end" transform="translate(-7,57.54545454545453)" style="font-family: sans-serif; font-size: 10px; fill: #000; opacity: 1;">10</text><text text-anchor="end" transform="translate(-7,21.181818181818187)" style="font-family: sans-serif; font-size: 10px; fill: #000; opacity: 1;">20</text></g><g class="mark-rule role-axis-domain" style="pointer-events: none;"><line transform="translate(0,200)" x2="0" y2="-200" style="fill: none; stroke: #888; stroke-width: 1; opacity: 1;"></line></g><g class="mark-text role-axis-title" style="pointer-events: none;"><text text-anchor="middle" transform="translate(-35,100) rotate(-90) translate(0,-2)" style="font-family: sans-serif; font-size: 11px; font-weight: bold; fill: #000; opacity: 1;">tsne_y</text></g></g></g></g></g></g></g></g></svg>